<?xml version="1.0" encoding="UTF-8"?>
<svg id="Layer_1" data-name="Layer 1" xmlns="http://www.w3.org/2000/svg" viewBox="0 0 802.5 226.8">
  <defs>
    <style>
      .cls-1 {
        fill: #fff;
      }

      .cls-2 {
        fill: #b91e2b;
      }

      .cls-3 {
        fill: #fab600;
      }
    </style>
  </defs>
  <g>
    <path class="cls-1" d="M265.5,143h-34.4v-2.7h.3c3,0,5.1-.8,6.3-2.3,1.2-1.6,1.8-4.5,1.8-8.7v-44.8c0-4.3-.6-7.2-1.7-8.8-1.1-1.5-3.2-2.3-6.4-2.3h-.3v-2.7h28.2c8,0,14.5,1.6,19.1,4.9,4.7,3.3,7,7.6,7,13,0,7.7-4.9,13.2-14.5,16.4,5.4,1.2,9.8,3.6,13.3,7.2,3.6,3.8,5.4,8.2,5.4,13.1,0,5.4-2.2,9.8-6.7,13.1-4.3,3-10.2,4.6-17.4,4.6h0ZM249.9,107.1v20.7c0,4.6.5,7.7,1.5,9.3s2.9,2.4,5.8,2.4h6.1c4.2,0,7.6-1.4,10.3-4.1,2.6-2.7,4-6.4,4-11,0-5.2-1.9-9.5-5.7-12.6-3.8-3.2-9-4.8-15.3-4.8h-6.7v.1h0ZM249.9,103.7h7.3c5.2,0,9.5-1.3,12.6-4,3.1-2.6,4.6-6.2,4.6-10.7s-1.5-8.5-4.5-11.1-7.4-4-12.9-4h-7.1v29.8h0Z"/>
    <path class="cls-1" d="M386.9,143h-26.7v-2.7h.3c4.1,0,6-1.3,6-4,0-.8-.2-1.7-.5-2.6l-6.8-19.7h-23.3l-5,14.2c-1.2,3.6-1.9,6.2-1.9,7.8,0,2.8,1.8,4.2,5.5,4.3h.3v2.7h-19.6v-2.7h.3c2.6-.4,4.7-1.2,6.2-2.6,1.5-1.3,3-4.2,4.5-8.5l20.5-59.3.1-.2h8l.1.2,21.5,61.9c1.2,3.6,2.5,5.9,3.8,6.9s3.4,1.5,6.4,1.5h.3v2.8h0ZM337.5,108.8h19.9l-10-29-9.9,29h0Z"/>
    <g>
      <path class="cls-1" d="M479.7,142.5h-2.8l-.1-.1-51.8-61.8v49.5c0,3.4.7,5.9,2.1,7.4s3.8,2.2,7.2,2.2h.3v2.7h-23.1v-2.7h.3c3.4,0,5.8-.9,7-2.6,1.2-1.8,1.8-4.9,1.8-9.4v-42.1c0-4.4-.8-7.6-2.5-9.6-1.6-1.9-4.4-3-8.2-3.4h-.3v-2.7h19.5l.1.1,45.9,55.2v-41.1c0-4.3-.6-7.3-1.9-9-1.2-1.6-3.5-2.5-6.8-2.5h-.3v-2.7h22.9v2.7h-.3c-3.5,0-5.9.8-7.2,2.3-1.3,1.6-2,4.5-2,8.7v58.9h.2Z"/>
      <path class="cls-1" d="M562.1,144.8c-13.7,0-24.5-3.3-32.2-9.9-7.7-6.6-11.6-15.4-11.6-26.1,0-7.5,1.7-14.4,5.1-20.4s8.1-10.9,14.1-14.4,12.5-5.3,19.3-5.3c4,0,8.5.7,13.3,2.1,3,.8,5.3,1.3,6.8,1.3,2,0,3.2-.7,3.8-2.2l.1-.2h2.8v21.8h-2.7v-.3c-.8-5.8-3.6-10.4-8.1-13.9-4.6-3.5-10-5.2-16.1-5.2-7.7,0-14.1,3-19,9s-7.4,13.8-7.4,23.3c0,10.4,2.9,19.2,8.6,26,5.7,6.8,12.9,10.3,21.5,10.3,8.1,0,12.1-2.4,12.1-7.3v-7.8c0-4.3-.6-7.4-1.7-9.1-1.1-1.7-3.2-2.5-6.1-2.5h-3.1v-2.7h30.6v2.7h-.3c-3.2,0-5.5.7-6.8,2.1s-2,3.8-2,7.3v19.6l-.3.1c-1.7.5-5,.9-9.7,1.2-4.7.3-8.4.5-11,.5h0Z"/>
      <path class="cls-1" d="M662.4,144.8c-11.1,0-20.5-3.7-28.2-11.1-7.6-7.4-11.5-16.6-11.5-27.3s3.9-19.8,11.5-26.9c7.6-7.2,17.2-10.8,28.6-10.8s20.5,3.7,28.1,10.9c7.6,7.3,11.5,16.3,11.5,26.8s-3.9,19.9-11.6,27.3c-7.8,7.4-17.3,11.1-28.4,11.1h0ZM662.9,72.2c-8.5,0-15.4,3.1-20.5,9.4-5.1,6.2-7.7,14.7-7.7,25s2.6,18.9,7.6,25.2c5,6.4,11.7,9.6,19.9,9.6s15.1-3.3,20.2-9.8c5.2-6.5,7.8-14.8,7.8-24.5,0-10.5-2.6-19-7.6-25.4-5-6.3-11.6-9.5-19.7-9.5h0Z"/>
    </g>
    <path class="cls-1" d="M802.4,143h-15.6l-.1-.1c-3.1-3.6-6.9-9-11.3-16.1-4.7-7.3-8.4-12.1-11-14.1s-5.5-3-8.7-3h-5.6v19.4c0,4.2.6,7.1,1.8,8.7,1.2,1.6,3.3,2.4,6.3,2.4h.3v2.7h-27.2v-2.6h.3c3.1,0,5.3-.8,6.4-2.4,1.1-1.6,1.7-4.5,1.7-8.7v-45.1c0-4.2-.6-7-1.6-8.6-1.1-1.5-3.2-2.3-6.4-2.3h-.3v-2.7h30.6c7.5,0,13.6,1.8,18.2,5.4,4.5,3.6,6.8,8.2,6.8,13.8,0,8.7-5,14.7-14.8,17.8,2,1.4,4.1,3.2,6,5.4,2.1,2.4,5,6.5,8.4,12.2,3.8,6.2,6.9,10.3,9,12.2s4.3,2.9,6.6,3.1h.3v2.6h-.1ZM750,106.1h8.7c5.3,0,9.5-1.5,12.5-4.4s4.5-6.9,4.5-11.8-1.7-8.6-5-11.5-7.8-4.4-13.4-4.4h-7.4l.1,32.1h0Z"/>
  </g>
  <g>
    <path class="cls-1" d="M245.7,208.8c-3.4,0-6.1-1-8-3s-2.9-4.6-2.9-7.8v-15c0-1.7-.2-3-.7-3.6-.4-.6-1.3-.9-2.6-.9h-.3v-1.5h11.9v1.5h-.3c-1.3,0-2.2.3-2.6.9-.5.6-.7,1.9-.7,3.6v15.4c0,2.4.7,4.3,2,5.7s3.3,2.1,5.7,2.1c3.6,0,6.5-1.6,8.7-4.9v-18.2c0-1.7-.2-2.9-.7-3.6-.4-.6-1.2-1-2.4-1h-.3v-1.5h11.7v1.5h-.3c-1.2,0-2.1.3-2.6,1s-.7,1.9-.7,3.6v19c0,1.7.2,2.9.7,3.6.4.6,1.3,1,2.6,1h.3v1.5h-8.3v-3.8c-2.9,2.9-6.4,4.4-10.2,4.4h0Z"/>
    <path class="cls-1" d="M308.9,208.1h-1.4l-.1-.1-21.7-25.9v20.6c0,1.4.3,2.4.9,3s1.6.9,3,.9h.3v1.5h-10.1v-1.5h.3c1.4,0,2.4-.3,2.8-1,.5-.7.8-2,.8-3.9v-17.8c0-1.8-.3-3.2-1-4s-1.8-1.2-3.4-1.4h-.3v-1.5h8.4l.1.1,19.2,23.1v-17c0-1.8-.3-3.1-.8-3.7-.5-.7-1.4-1-2.8-1h-.3v-1.5h10.1v1.5h-.3c-1.4,0-2.4.3-2.9.9s-.8,1.8-.8,3.6v25.1h0Z"/>
    <path class="cls-1" d="M340.1,208.1h-11.9v-1.5h.3c1.3,0,2.1-.3,2.6-.9s.7-1.9.7-3.6v-19c0-1.8-.2-3-.7-3.7-.4-.6-1.3-.9-2.6-.9h-.3v-1.5h11.9v1.5h-.3c-1.2,0-2.1.3-2.6,1s-.7,1.9-.7,3.6v19c0,1.8.2,3,.7,3.6s1.3.9,2.6.9h.3v1.5h0Z"/>
    <path class="cls-1" d="M371.8,208.5h-1.3l-.1-.2-9.7-24.7c-.9-2.2-1.7-3.7-2.3-4.2-.6-.5-1.5-.8-2.7-.9h-.3v-1.5h12v1.5h-.3c-2.2,0-2.5,1-2.5,1.8,0,.4.1.9.3,1.4l7.4,19,7-18.3c.3-.8.4-1.5.4-2,0-.8-.3-1.9-2.5-1.9h-.3v-1.5h9.7v1.5h0c-2.2,0-4,1.9-5.4,5.7l-9.3,24-.1.3h0Z"/>
    <path class="cls-1" d="M422.1,208.1h-23.1v-1.5h.3c1.3,0,2.2-.3,2.6-.9.4-.6.7-1.9.7-3.6v-19c0-1.8-.2-3-.7-3.7-.4-.6-1.3-.9-2.6-.9h-.3v-1.5h23.2v5.7h-1.1v-.2c-.3-1.4-.7-2.3-1.3-2.7-.5-.4-1.8-.7-3.7-.7h-8.8v12.5h8.5c1.1,0,1.9-.2,2.3-.5.4-.4.7-1.1.9-2.2v-.2h1.4v8h-1.4l-.1-.2c-.4-1.5-.8-2.1-1.1-2.3-.3-.2-1.1-.4-3-.4h-7.5v10.6c0,.7.1,1.1.4,1.4.3.3.8.4,1.6.4h5.5c1.9,0,3.3-.1,4-.3s1.3-.6,1.8-1.1,1-1.4,1.6-2.7l.1-.2h1.5l-.1.3-1.4,5.7-.2.2h0Z"/>
    <path class="cls-1" d="M470.8,208.1h-6.8l-.1-.1c-1.3-1.5-2.9-3.8-4.8-6.8-2-3.1-3.5-5.1-4.6-5.9s-2.3-1.2-3.6-1.2h-2.3v8.1c0,1.7.2,2.9.7,3.6.5.6,1.3,1,2.6,1h.3v1.5h-11.9v-1.7h.3c1.3,0,2.2-.3,2.6-.9.5-.7.7-1.9.7-3.6v-19.1c0-1.7-.2-2.9-.7-3.6-.4-.6-1.3-.9-2.6-.9h-.3v-1.5h13.2c3.2,0,5.8.8,7.8,2.3s3,3.5,3,5.9c0,3.7-2.1,6.2-6.1,7.6.8.6,1.6,1.3,2.3,2.2.9,1,2.1,2.8,3.6,5.2,1.6,2.6,2.9,4.3,3.8,5.2.9.8,1.8,1.2,2.7,1.3h.3v1.2l-.1.2h0ZM448.6,192.2h3.6c2.2,0,4-.6,5.2-1.8s1.9-2.9,1.9-4.9-.7-3.6-2.1-4.8-3.3-1.8-5.6-1.8h-3v13.3h0Z"/>
    <path class="cls-1" d="M493.7,208.8c-1.4,0-3.3-.4-5.5-1.2-1.1-.4-1.5-.5-1.6-.5s-.6,0-.9,1l-.1.2h-1.4v-8.7h1.5v.3c0,2.2.8,3.9,2.2,5.2,1.4,1.3,3.1,2,5.1,2,1.8,0,3.3-.5,4.4-1.4s1.6-2.2,1.6-3.7c0-1.2-.5-2.3-1.4-3.4s-2.9-2.5-5.8-4.3c-2.5-1.5-4.1-2.6-5-3.5-.8-.9-1.5-1.8-1.9-2.9-.4-1-.6-2.2-.6-3.4,0-2.4.8-4.4,2.5-5.9,1.6-1.5,3.8-2.3,6.3-2.3,1.4,0,3,.3,4.6.8.9.3,1.3.3,1.5.3s.3-.1.3-.1c0,0,.1-.1.2-.6l.1-.2h1.4v7.7h-1.4v-.2c-.2-1.9-.9-3.4-2.1-4.4-1.2-1.1-2.7-1.6-4.6-1.6-1.6,0-2.9.4-3.9,1.2s-1.4,1.8-1.4,3.1c0,1.2.4,2.3,1.2,3.3s2.7,2.4,5.5,4c3.3,1.9,5.6,3.6,6.8,5.1s1.8,3.2,1.8,5.1c0,2.5-.9,4.6-2.7,6.3-2,1.8-4.2,2.7-6.7,2.7h0Z"/>
    <path class="cls-1" d="M531.6,208.1h-11.9v-1.5h.3c1.3,0,2.1-.3,2.6-.9s.7-1.9.7-3.6v-19c0-1.8-.2-3-.7-3.7-.4-.6-1.3-.9-2.6-.9h-.3v-1.5h11.9v1.5h-.3c-1.2,0-2.1.3-2.6,1s-.7,1.9-.7,3.6v19c0,1.7.2,3,.7,3.6s1.3.9,2.6.9h.3v1.5h0Z"/>
    <path class="cls-1" d="M567.3,208.1h-11.7v-1.5h.3c1.3,0,2.1-.3,2.6-1s.7-1.9.7-3.6v-23h-4.3c-2.1,0-3.6.3-4.6,1-.9.6-1.4,1.7-1.5,3.1v.3h-1.5v-7.6h1.3l.1.1c.8.7,2.3,1.1,4.5,1.1h16.4c2.3,0,3.9-.4,4.8-1.1l.1-.1h1.4v7.6h-1.1l-.1-.2c-.4-1.6-1-2.7-2-3.3s-2.4-.9-4.4-.9h-4.5v23.1c0,1.8.2,3,.6,3.6s1.2.8,2.5.8h.3v1.6h.1Z"/>
    <path class="cls-1" d="M610.5,208.1h-12v-1.5h.3c1.4,0,2.4-.3,2.9-1s.7-1.9.7-3.6v-9.4l-6.6-10c-1.1-1.6-2-2.7-2.6-3.2s-1.6-.8-2.7-.8h-.3v-1.5h12.7v1.5h-.3c-2,0-3,.4-3,1.2,0,.4.2.9.6,1.5l6,8.9,4.7-7.3c.7-1.1,1.1-2,1.1-2.8,0-.6-.2-1.4-1.8-1.4h-.3v-1.5h9.2v1.5h-.3c-1.1.1-2,.3-2.5.7-.6.4-1.4,1.3-2.2,2.6l-7,10.7v9.5c0,1.8.2,3,.7,3.6.4.6,1.3.9,2.5.9h.3v1.2l-.1.2h0Z"/>
  </g>
  <g>
    <path class="cls-1" d="M243,41.5h-11.9v-1.5h.3c1.3,0,2.1-.3,2.6-1s.7-1.8.7-3.5v-19.1c0-1.7-.2-3-.7-3.6s-1.3-1-2.6-1h-.3v-1.4h11.7c3.8,0,6.8.8,9,2.5s3.4,3.8,3.4,6.4-1,4.6-3,6.1c-1.9,1.4-4.8,2.1-8.4,2.1-1.3,0-2.8-.1-4.5-.3v8.2c0,1.8.2,3,.7,3.6.4.6,1.3.9,2.6.9h.3v1.2l.1.4h0ZM239.4,25.4c1,.3,2.2.4,3.6.4,2.3,0,4.1-.6,5.4-1.7,1.3-1.1,2-2.7,2-4.6,0-2.1-.7-3.9-2-5.2-1.3-1.4-3.1-2.1-5.4-2.1h-3.6v13.2h0Z"/>
    <path class="cls-1" d="M301,41.5h-6.8l-.1-.1c-1.3-1.5-2.9-3.8-4.8-6.8-2-3.1-3.5-5.1-4.6-5.9s-2.3-1.2-3.6-1.2h-2.3v8.1c0,1.7.2,2.9.7,3.6.5.6,1.3,1,2.6,1h.3v1.5h-11.8v-1.5h.3c1.3,0,2.2-.3,2.6-.9.5-.7.7-1.9.7-3.6v-19.1c0-1.7-.2-2.9-.7-3.6-.4-.6-1.3-.9-2.6-.9h-.3v-1.7h13.2c3.2,0,5.8.8,7.8,2.3s3,3.5,3,5.9c0,3.7-2.1,6.2-6.1,7.6.8.6,1.6,1.3,2.3,2.2.9,1,2.1,2.8,3.6,5.2,1.6,2.6,2.9,4.3,3.8,5.2.9.8,1.8,1.2,2.7,1.3h.3v1.4s-.2,0-.2,0ZM278.9,25.5h3.6c2.2,0,4-.6,5.2-1.8s1.9-2.9,1.9-4.9-.7-3.6-2.1-4.8-3.3-1.8-5.6-1.8h-3v13.3h0Z"/>
    <path class="cls-1" d="M328,41.5h-11.9v-1.5h.3c1.3,0,2.1-.3,2.6-.9.5-.6.7-1.9.7-3.6v-19c0-1.8-.2-3-.7-3.7-.4-.6-1.3-.9-2.6-.9h-.3v-1.5h11.9v1.5h-.3c-1.2,0-2.1.3-2.6,1s-.7,1.9-.7,3.6v19c0,1.7.2,3,.7,3.6s1.3.9,2.6.9h.3v1.5h0Z"/>
    <path class="cls-1" d="M358.2,41.5h-11.9v-1.5h.3c1.3,0,2.1-.3,2.6-.9.5-.6.7-1.9.7-3.6v-19c0-1.8-.2-3-.7-3.6-.4-.6-1.3-.9-2.6-.9h-.3v-1.6h22.1v6h-1.2v-.2c-.3-1.5-.7-2.6-1.3-3-.3-.3-1.2-.7-3.6-.7h-7.7v12.2h7.9c1,0,1.8-.2,2.3-.7s.8-1.4,1-2.6v-.2h1.4v9.2h-1.5v-.3c-.1-2.1-1.1-3.2-3.1-3.2h-8v8.7c0,1.8.2,3,.7,3.6s1.3.9,2.6.9h.3v1.4h0Z"/>
    <path class="cls-1" d="M404.4,41.5h-12.1v-1.5h.3c1.4,0,2.4-.3,2.9-1s.7-1.9.7-3.6v-9.5l-6.6-10c-1.1-1.6-2-2.7-2.6-3.2s-1.6-.8-2.7-.8h-.3v-1.5h12.9v1.5h-.3c-2,0-3,.4-3,1.2,0,.4.2.9.6,1.5l6,8.9,4.7-7.3c.7-1.1,1.1-2,1.1-2.8,0-.6-.2-1.4-1.8-1.4h-.3v-1.6h9.2v1.5h-.3c-1.1.1-2,.3-2.6.7s-1.4,1.3-2.2,2.6l-7,10.7v9.5c0,1.8.2,3,.7,3.6.4.6,1.3.9,2.5.9h.3v1.2l-.1.4h0Z"/>
    <path class="cls-1" d="M435.4,42.2c-1.5,0-3.3-.4-5.5-1.2-1.1-.4-1.5-.5-1.6-.5-.4,0-.7.3-.9,1l-.1.2h-1.4v-8.8h1.5v.3c0,2.2.8,3.9,2.2,5.2s3.2,2,5.1,2c1.8,0,3.3-.5,4.4-1.4s1.6-2.2,1.6-3.7c0-1.2-.5-2.3-1.3-3.4-.9-1.1-2.9-2.5-5.8-4.3-2.5-1.5-4.1-2.6-4.9-3.5s-1.5-1.8-1.9-2.9c-.4-1-.6-2.2-.6-3.4,0-2.4.8-4.4,2.5-5.9,1.6-1.5,3.8-2.3,6.3-2.3,1.4,0,3,.3,4.6.8.9.3,1.3.3,1.5.3s.3-.1.3-.1c0,0,.1-.1.2-.6l.1-.2h1.4v7.7h-1.7v-.2c-.2-1.9-.9-3.4-2.1-4.4-1.2-1.1-2.7-1.6-4.6-1.6-1.6,0-2.9.4-3.9,1.2s-1.4,1.8-1.4,3.1c0,1.2.4,2.3,1.2,3.3s2.7,2.4,5.5,4c3.3,1.9,5.6,3.6,6.8,5.1s1.8,3.2,1.8,5.1c0,2.5-.9,4.6-2.7,6.3-1.9,1.9-4.1,2.8-6.6,2.8h0Z"/>
    <path class="cls-1" d="M479.8,42.2c-5.8,0-10.4-1.4-13.7-4.2s-4.9-6.6-4.9-11.2c0-3.2.7-6.1,2.2-8.7,1.4-2.6,3.5-4.6,6-6.2,2.6-1.5,5.3-2.3,8.2-2.3,1.7,0,3.6.3,5.7.9,1.3.4,2.2.5,2.9.5.8,0,1.3-.3,1.5-.8l.1-.2h1.5v9.6h-1.4v-.2c-.3-2.4-1.5-4.4-3.4-5.8-1.9-1.5-4.2-2.2-6.7-2.2-3.2,0-5.9,1.3-7.9,3.8-2.1,2.5-3.1,5.8-3.1,9.8,0,4.4,1.2,8.1,3.6,10.9,2.4,2.9,5.4,4.3,9,4.3,3.4,0,5-1,5-3v-3.3c0-1.8-.2-3.1-.7-3.8s-1.3-1-2.5-1h-1.5v-1.5h13.3v1.5h-.3c-1.3,0-2.2.3-2.8.8-.5.6-.8,1.6-.8,3v8.4l-.2.1c-.8.2-2.1.4-4.1.5-2.3.2-3.9.3-5,.3h0Z"/>
    <path class="cls-1" d="M525.2,42.2c-4.7,0-8.8-1.6-12-4.7-3.3-3.2-4.9-7.1-4.9-11.6s1.6-8.4,4.9-11.5c3.2-3.1,7.3-4.6,12.2-4.6s8.7,1.6,12,4.7,4.9,6.9,4.9,11.4-1.7,8.5-5,11.6c-3.3,3.1-7.3,4.7-12.1,4.7h0ZM525.5,11.4c-3.6,0-6.5,1.3-8.6,3.9-2.1,2.6-3.2,6.2-3.2,10.5s1.1,7.9,3.2,10.6c2.1,2.7,4.9,4,8.3,4s6.3-1.4,8.5-4.1c2.2-2.7,3.3-6.2,3.3-10.3,0-4.4-1.1-8-3.2-10.7-2.2-2.5-5-3.9-8.3-3.9h0Z"/>
    <path class="cls-1" d="M581.7,41.5h-23.2v-1.5h.3c1.2,0,2-.3,2.5-1s.8-2,.8-3.8v-19.2c0-1.6-.2-2.7-.7-3.3-.4-.6-1.3-.9-2.6-.9h-.3v-1.4h11.8v1.5h-.3c-1.2,0-2,.3-2.5,1s-.8,1.9-.8,3.5v20.3c0,1,.2,1.7.6,2.1.4.4,1.3.6,2.6.6h6.2c1.8,0,3.1-.3,3.9-.9.7-.6,1.4-2,2.1-4.1l.1-.2h1.5l-.1.4-1.9,6.6v.3h0Z"/>
  </g>
  <g>
    <path d="M97,226.8c21,0,45.2-9.9,64.5-26.5,20.7-17.8,32.5-40.4,32.5-62.1V0H0v138.1c0,21.7,11.9,44.3,32.5,62.1,19.3,16.6,43.5,26.6,64.5,26.6h0Z"/>
    <rect class="cls-2" x="130.9" y="3.6" width="59.4" height="95.8"/>
    <path class="cls-2" d="M3.6,102.6h59.5v112.7C31.8,201.5,3.6,171.2,3.6,138.1c0,0,0-35.5,0-35.5Z"/>
    <rect class="cls-3" x="3.6" y="3.6" width="59.4" height="95.8"/>
    <path class="cls-3" d="M130.9,102.6v112.7c31.3-13.8,59.5-44.1,59.5-77.2v-35.5s-59.5,0-59.5,0Z"/>
    <path class="cls-1" d="M101.9,203.5c.2,0,1.4-.6,1.4-2.5,0-1.5-.9-2.4-2.3-2.4-1.5,0-1.8,1.1-1.8,2-.1,2.4,2.7,2.9,2.7,2.9ZM90.4,205.8c-.7-.3-1.5-.6-1.7-.7-.2,0-1.9.7-1.9,2.7,0,2.2,1.1,3.3,3.1,3.3s2.3-1.4,2.3-2.5c.1-1.8-.7-2.3-1.8-2.8ZM90.6,203.5c.2,0,1.4-.6,1.4-2.5,0-1.5-.9-2.4-2.3-2.4-1.5,0-1.8,1.1-1.8,2-.1,2.4,2.7,2.9,2.7,2.9ZM109.9,206.4q0,.2.5.2h3.3v-7c-.4.5-1.4,2-2.5,4-1,1.9-1.3,2.7-1.3,2.8ZM127.8,3.8v-.2h-61.6v.1h-.2v212.9c7.9,3.2,16,5.4,23.9,6.2,8.7,1.1,16.4.4,24.6-1.8,4.4-1.1,8.8-2.5,13.2-4.3v-.3c.1,0,.1-.1.2-.1V3.8h-.1ZM82.8,212.3h-6.9v-.9h.2l1.5-.4q.6-.2.6-.8v-10q0-.8-.7-.8h-2v-.2l-.1-.4v-.2l.2-.1,4.2-1.2h.1l.1.1.3.2.1.1v12.8c0,.4,0,.6.7.7l1.5.4h.2v.7h0ZM89.3,212.6c-2.7,0-4.4-1.6-4.4-4.4,0-2.2,1.4-3,2.2-3.4.2-.1.4-.2.4-.3h0s-.2-.1-.3-.2c-.6-.4-1.7-1-1.7-3.2,0-2.6,2.2-4,4.5-4,2.5,0,3.8,1.3,3.8,3.7,0,1.8-1.2,2.6-1.9,3-.1.1-.2.1-.2.2.1.1.2.1.4.2.8.4,2.4,1.1,2.4,3.5,0,3-2,4.9-5.2,4.9ZM100.7,212.6c-2.7,0-4.4-1.6-4.4-4.4,0-2.2,1.4-3,2.2-3.4.2-.1.4-.2.4-.3h0s-.2-.1-.3-.2c-.6-.4-1.7-1-1.7-3.2,0-2.6,2.2-4,4.5-4,2.5,0,3.8,1.3,3.8,3.7,0,1.8-1.2,2.6-1.9,3-.1.1-.2.1-.2.2.1.1.2.1.4.2.8.4,2.4,1.1,2.4,3.5-.1,3-2.1,4.9-5.2,4.9ZM118.5,207.2l-.8,1.1-.1.1h-1.6v1.8q0,.8.6.9l1,.3.2.1v.9h-5.6v-.9l.2-.1,1.2-.3q.4-.1.4-.8v-1.8h-5.8l-.1-.1-.2-.2-.1-.1v-.1l.4-1.5c.3-.6.6-1.1,1-1.7.5-.8,1-1.7,1.6-2.6,1.4-2.1,2.5-3.8,3-4.3v-.1h.1l1.9-.6h.1l.1.1.2.2.1.1v9.2h2.2l.1.1.1.2.1.1h-.3ZM101.7,205.8c-.7-.3-1.5-.6-1.7-.7-.2,0-1.9.7-1.9,2.7,0,2.2,1.1,3.3,3.1,3.3s2.3-1.4,2.3-2.5c.1-1.8-.7-2.3-1.8-2.8Z"/>
    <g>
      <path d="M145.9,42.7c-.1,1.5-1,.2-1,.2,0,0-2.3-2.2-2.3-5.5.7-.4,1-1.8,1.3-2,.3-.1,2.2-1,2.2-2,0-.9-2.6-6.8-2.6-9l-2.2,3.1-1.8-3.1-1.4,3.6-1.4-1.7s-.7,5.3-.4,6.2c.7,2.6,1.8,2.3,1.8,3.2,0,1.4-2.4,2.4-2.4,2.4.3.7,1.7,7.4,2.7,10.6,1.2,3.7,2,4,2.7,5.6.6,1.3.9,4.1,2.4,4.1s5.7-1.5,5.7-1.5c-1.4,1.3-2,15-4.3,15-1.5,0-5.4.1-5.4.1,0,0-1.7,2.7-3.1,8l3.3-1.9-1,5.3,4-3,1.7,5.2,1.5-2.4s-.4-1.2.9-2.8c1.1-1.4,2.7-3.8,2.7-3.8l2.1.5s1.1-1.6.8-3.1l.6-.1.6-1.4.9-2.5c.3-.8,3.8-9.9,4.9-12.6.2-.5.8-2.1.6-3-.1-.5-.2-1-.2-1.9,0-.8.7-2.4,2.1-3.8v.1c0,1,.7,1.2,1.1,1.2s.6-.2.9-.3c.4-.3,1.1-.8,2.6-.8h.5c-1.5.6-3.2,2.3-3.2,5.7,0,2.3,1,5,1.7,6.9.2.6.5,1.2.6,1.6-.1.1-.2.2-.4.3-1.5,1.1-3,2.3-3.5,3.6v.1c-2.3.4-4.5.6-4.5.6l-3.4,6.1,2.2-.7-2.1,4.6,4.1-1.7s-.9,3.1,0,4.3c.1-.1,1.5-1,1.5-1,0,0,.7-1.7,1.1-2.1.4-.4,3-3.1,3-3.1l.6,1.6c3.1-1.5,8.8-8.9,9-10.2,0-1.3-2.2-3.2-2.2-6.2,0-1.7.7-2.4.7-2.4,0,2.1,4.9,6.7,5.4,8-1.1.6-3.3,7.1-3.5,8-.9,0-5.6,1.1-5.6,1.1,0,0-2.7,2.9-3.5,6.3l3.8-.8-.7,4.4,1.7-.4s1.6-2.6,4.2-2.8l2.3,3.9,1.6-1.8s.2-5,1-5.6l1.8.7c5.1-3.7,5.8-17.1,5.1-17.5-.4-.3-.6.3-1.9-1.4-2.2-2.7-1.8-8.9-3.9-11.1,0,0,.2-.2,1.2-.2s4.5-1.3,4.6-5.6c0-5.3-4.4-7.2-4.4-7.2,0,0,.5-.9.5-2.1,0-4-4.4-4-4.4-4.5,2.1-.4,4.3-2.9,4.5-4.7.5-5.1-5.2-7.9-7.6-5.5.8.7,2.6,1.4,2.6,3.3,0,3.2-3.5,4.9-3.5,4.9,0,0,.6-1.3.6-2.8,0-1.6-.9-4.3-4.3-4.3-4.3,0-5.3,3.7-5.3,3.7,1.1,0,4.4-.4,4.4,1.7,0,2.6-4.3,4.1-4.3,8.3s3.7,7.3,7.9,7.6c1.1.1,1.3.1,2.1.1s1.3,1,3.1,1c2.2,0,2.7-1,3.4-1s.7.7.7,1.1.1,1.5-2.5,1.5c-2.8,0-7.9-1.4-12.5-1.4-3.6,0-4.1.1-4.3.3.2-.4.8-1.5.8-2.5-.8-.4-1.6-2.8-2-2.8,3.9-3.5,3.3-6.6,3.3-7.3-.3-.9-.8-1-1.8-1-.9,0-1.5.4-1.5.4,0,0-.2-3.3-.8-4.5-1.2-1.9-7.4-3.2-9.7.4,0,0-.9,2.2-1.2,2.9-1.9-.8-3,.2-3,.2,0,0,.1,1,.1,1.7,0,.6-.1,1.5-.1,2.3s1.7,3.8,1.7,3.8c-.9,1.4-4.2,2.9-4.2,2.9.8,1.6,1.8,4.1,1.8,4.1Z"/>
      <path class="cls-3" d="M147,42c.4-.3,1.5-2.1,2.6-2.1-.1.6-1.7,2-2.3,3.1-.5,1.1.4,2.2.8,3-.1-.7,1.6-1.9,2.2-2.5.5-.6,1-.4.6.4-.5,1-1.9,2-1.9,3.5,0,.8.6,1.4,1.4,1.8,0,0,.3-2.6,1.4-1.9.4.3-1.7,4.3,0,5.9.3-1.2,2.9-3.2,2.9-3.7s-.9-2.3,0-2.3c.5,0,1,1.6,1.4,1.6s1.1-.4,1.1-1-1.6-3.3-.6-3.3c.5,0,1.5,1.8,1.8,1.8s.5-.2.8-1.6c.3-1.4-1.3-2-.7-3.4,0,0,1.4.7,1.9,1.5s1.4-1.4,1.4-2.2c-.3-.3-.6-1.5-1.1-2.2-.5-.6-1.1-.8-1.1-1,0-.4.5-.5,2.3-2.4,1.8-2,1.5-4.3,1.5-4.6-1.1-1-2,.5-2.9,0s-.5-3.3-.7-4.2c0,0-1.2,1.9-1.4,1.6-.3-.3.1-1.1.4-2s-1.3-1.4-1.3-1.4c0,0-.4,1.9-1,1.8s-.5-1.9-.5-1.9c0,0-1.3-.7-1.5.8-.3,1.8-1.2.3-1.6-.5-.6.3-.4,2.3-.4,3.1,0,.7-1.3-.6-1.9-.9.2.6-.5,1.6-.5,2.3s-2.4-.4-2.9.1c0,.3-.3,2.6.1,3.9.6,1.7,1.5,2.4,1.5,3.4,0,.9-1.4,1.4-4,3,1.2,0,1.2,3.3,2.2,2.5ZM155.8,28.7c.5.6,1.6,1.5,2.4.8.4.1.5.2.1.7s-.4,1.7-1.2,1.6c-1.4-.1-.8-2.2-1.4-2.6l.1-.5ZM154.4,28.6l.2.4c-.4.1-.5,2.4-1.5,2.4-1.3,0-.3-1.6-1.3-1.9-.1-.1,1.8-.2,2.6-.9ZM148.5,31.8c0-1.4,1-1.5,1.3-1.5.8,0,.7,2.3,1.1,2.8s1.4.3,1.5.6c-.3.5-1.3,1.1-1.3,1.8s.6.9.9.9c.4,0,2.2-.5,2.2-1.5,0-.5-.4-.8-.6-1.2s-.1-.8-.3-.9c.7-.1,1.4-.3,1.9-.3s.6.4.6.8c0,.5-1,.8-1,1.3s1.3,1.7,1.7,1.7,1.4-.4,1.4-1-.4-1.4,0-1.8c.2-.2.8.2.8.2.8-.8,1.3-2.4,2.9-2.6,1.6,2.8-1.7,3.8-1.7,3.8l-1.3-.3c.5,1.6-.9,2.1-.8,2.8.1,1.8-.2,2.3-.9,2.9-.4-.1-1.3-.2-1.4.2.8,1.5-1.6,3.1-1.4,3.7-.4-.2-1.2-2-1.5-2.4s.3-.9-.1-1.7c-.2-.5-1.2.1-1.4-.8-.1-.8.2-2.5-.8-3.1.1-1.7-1.8-2.8-1.8-4.4ZM174.9,38c0,1.2.6,2.9,2.5,2.9,2.1,0,2.2-1,3.4-1s1.8,1,1.8,2.1-.6,2.5-3.5,2.5c-5.2,0-6.6-1.4-12.7-1.4s-5.4,2.3-9.1,6.1c-3.8,3.8-6.7,6.5-6.7,6.5l.2.6c-1.8,1.9-2.7,11.1-3.6,14.4-.9,3.2-5.9,4.6-5.9,4.6l-1.1,6.2,2.4-2.1s-.2-.5-.2-1.8c-.1-1.4,3.7-4.1,5.5-5.3-.3,1.7-4.5,5.1-4.5,5.1,0,0,.4,1.1.5,2.4s1,3.6,1,3.6l.2-.4s.1-1.4.4-2c.6-1.2,3.7-5.4,3.7-5.4l2,.3c1.1-1.7-.4-3.2-.8-4.2.8-.8,1.3-.4,2.3.5.8-1.8.1-2-.5-3.4s.5-1.1,2.1-.3c.6-1,.5-1.8-.5-3.8-.9-2,1.1-1.1,2-.4.7-1.1.4-1.3-.5-3.4-.8-2.1.5-1.8,1.9-.8.9-2.4.2-2-.5-3.5-.6-1.6.9-1.4,2-.5,1.1-1,.2-1.3.2-3.8,0-1.8,2.1-5.3,5.8-6.6,1.3,1.3-1.7,1.5-1.7,2.9,0,.8.6-.9,3.5-.9s3.1,1.4,3.8,1.4c.8,0,.1-2.1.1-2.1,3.5,0,2.3,3.4,2.3,7.6s5.8,8.2,5.9,10.5c-2.1,1.3-2.6,6.6-4.5,9.5-1.1,1.2-2.3,1.3-3.7,1.8l-1.3,5.3c1.1-1.1,3.8-1.9,3.8-1.9-1.3-2.6.4-3.2,1.1-3.8s3.5-4.3,3.5-4.3l.5.5s-1.4,4.1-3.7,5.1c-.6,1.3,1.5,4.7,2,5.5.2-.3.5-.6.5-.6,0,0,.2-4.5.9-5.3.8-.9,1.1-.8,2.6-.2.7-.7.3-2.5-.3-3.6.7-1.3,1.7,1.2,2.1.8,1.2-1.6-1.1-2.9-.3-4.5,0,0,1.3,1.2,1.6,1s.2-1.1-.2-2c-1.6-3.8.8-1.3,1.1-1.4.5-.3-.1-2.7-.7-3.3-.4,1.1-2.6,5.1-3.8,8-.2.5-1.4.7.2-4.2,1.9-5.8,4-4.9,4.9-4.6-.1-2.7-2.8-2.9-3-4.7-2.7-1.1-.5-10.4-6-12.6l7-.5c-1.4,1.4-4,.9-4,.9,0,0,0,.8,2.1.8s3.8-2,3.8-4.6c0-1.9-2.3-6.2-4.6-6.2-1.9,0-2.6,2.9-3.1,2.6-1.1-.6-.3-1.1.1-1.8,1.4-2.5,3.8-1.9,3.8-3.9,0-3.8-4.8-3.9-5.5-3.2-.6.6,2.2,0,2.2,2.4,0,.4,1.4-1.2,1.4-1.1-.3,2-4.2,3.3-4.2,7ZM169.5,36.5c.5,1,5,.7,5-3.4,0-2.2-1.8-2.6-1.8-3.2,0-1.5,8.1-2.1,8.1-6,0-2-.6-3-.6-3,0,0,.2,3.1-.8,3.1-1.5,0-.2-1.8-.2-2.7,0-3.3-3.5-2.6-3.5-2.6,0,0,2.1.1,2.1,3.4,0,4.2-6.2,6.8-6.6,6.3-.5-.5,1.7-1.9,1.7-4.2,0-1.1-.5-3.5-2.9-3.5-2.9,0-4.7,2-3.6,1.8s3.4.6,3.4,2.6c0,3.3-4.4,4.1-4.4,8.3,0,5.3,5.3,6.5,7,6.5s2-.2,2-.2c-.4-.5-.3-1.7-.3-1.7,0,0-.9.3-2,.3-4.1,0-4.5-3.1-4.5-4.1s1.1-3.1,2.7-2.9c3.5.2,1.4,4-.8,5.2ZM165.6,70.9c.5-.7,1.4,1.7,1.4,1.7,2.1-1.9-.2-2.9.5-3.5.9-.8,2.4.5,2.4.5,1.1-1-.6-2-.1-2.6,1-1.3,1.3-.1,2-.4s1.4-.9.7-1.9c-.8-1-3.2-5.3-1.1-8.4,0,0-1.4.5-1.7,1.6s.8,6.8.8,7.7l-6.2,5.3s-.5-.5.4-1.5c.8-1.1,4.7-4.3,4.7-4.3-1-1.3.5-4.5-1.5-5.7-.5-.2-2-.7-.8-1.6.8-.6,2.2-.3,2.2-3s-2.5-2.9-2.5-2.9c.3-.8,2.5-.6,3.1-1.4-1.1-.5-1.1-.6-2-.6-.8,0-3.2,1.2-3.2,4.9s2.7,8.5,2.3,8.9c-.5.5-3.3,2.3-3.9,3.8-.6,1.4-3.9,3.6-3.9,3.6l-3.2,5.2,2.1-1.2s.8-2.5,2-3.3c1.8-1.1,3.4-2.9,3.7-2.6s-1.4,2.5-3.1,3.4c-.5,1.1-1.8,4.9-1.7,5.7,0,0,3.8-4.5,4.8-5,1.1-.5,1.4.9,1.4.9,1.4-1.2-.1-2.6.4-3.3ZM158.4,69.7c.7-.6,2.1-.8,3-1.7-1.8.4-3.5.9-3.5.9l-2.1,3.2,1.7-.7c-.1,0,.2-1.1.9-1.7ZM140.9,74.4s2-.5,3.6-1.3c-1.7.2-4.4.2-4.4.2l-2.4,5.1,2.4-1.4s-.1-2.3.8-2.6ZM137.4,42.2c0,1.8,2.3,2.6,2.5,3.5s-1.8-.6-1.8-.3c.3,2.5,2.4,2.8,3.2,4.1.5.8-1.9-.3-1.9-.1.5,2.9,3.6,1.8,4.1,3.8.3,1.1-1.9-.6-2,.3,0,.6,1.2,4,1.8,4.1.7.2,2.9-.7,3.8-1.1,1-.4,2.9-.8,3.1-1.7-1.1-1.7-3.8-5.5-4.2-9-2.2-2.3-4.4-5.7-4.4-8.5s.8-5,.8-5l-3.1-5.8-.6,2.6s2.9,2.7,2.8,3.6c-.1.9-.8,3.7-.8,3.7-.5.8-.4-3.6-.4-3.6l-3.3-4.2s-.2,2.8,0,3.6c.4,1.6,1.8,2.4,1.8,3.4s-1.3,2.6-2,3c-.2,1.2,2.2,2.4,2.3,3.5-.4.8-1.7-.4-1.7.1ZM142.9,35.2c.5-.8,2.3-1.2,2.2-1.9s-2.2-5.5-2.2-6.7l-1.3,2.5s2,2.8,2,3.7c-.1.9-.9,1.1-.7,2.4ZM173.5,74c-2.2.4-5,1.1-5,1.1l-2.5,4.1,2.9-.6c.3-1.4.4-2.2,1-2.7,1.3-1.2,3.2-1.3,3.6-1.9Z"/>
    </g>
    <g>
      <path d="M19.7,130.1c-.1,1.5-1,.2-1,.2,0,0-2.3-2.2-2.3-5.5.7-.4,1-1.8,1.3-2,.3-.1,2.2-1,2.2-2,0-.9-2.6-6.8-2.6-9l-2.2,3.1-1.8-3.1-1.4,3.6-1.4-1.7s-.7,5.3-.4,6.2c.7,2.6,1.8,2.3,1.8,3.2,0,1.4-2.4,2.4-2.4,2.4.3.7,1.7,7.4,2.7,10.6,1.2,3.7,2,4,2.7,5.6.6,1.3.9,4.1,2.4,4.1s5.7-1.5,5.7-1.5c-1.4,1.3-2,15-4.3,15-1.5,0-5.4.1-5.4.1,0,0-1.7,2.7-3.1,8l3.3-1.9-1,5.3,4-3,1.7,5.2,1.5-2.4s-.4-1.2.9-2.8c1.1-1.4,2.7-3.8,2.7-3.8l2.1.5s1.1-1.6.8-3.1l.6-.1.6-1.4.9-2.5c.3-.8,3.8-9.9,4.9-12.6.2-.5.8-2.1.6-3-.1-.5-.2-1-.2-1.9,0-.8.7-2.4,2.1-3.8v.1c0,1,.7,1.2,1.1,1.2s.6-.2.9-.3c.4-.3,1.1-.8,2.6-.8h.5c-1.5.6-3.2,2.3-3.2,5.7,0,2.3,1,5,1.7,6.9.2.6.5,1.2.6,1.6-.1.1-.2.2-.4.3-1.5,1.1-3,2.3-3.5,3.6v.1c-2.3.4-4.5.6-4.5.6l-3.4,6.1,2.2-.7-2.1,4.6,4.1-1.7s-.9,3.1,0,4.3c.1-.1,1.5-1,1.5-1,0,0,.7-1.7,1.1-2.1.4-.4,3-3.1,3-3.1l.6,1.6c3.1-1.5,8.8-8.9,9-10.2,0-1.3-2.2-3.2-2.2-6.2,0-1.7.7-2.4.7-2.4,0,2.1,4.9,6.7,5.4,8-1.1.6-3.3,7.1-3.5,8-.9,0-5.6,1.1-5.6,1.1,0,0-2.7,2.9-3.5,6.3l3.8-.8-.7,4.4,1.7-.3s1.6-2.6,4.2-2.8l2.3,3.9,1.6-1.8s.2-5,1-5.6l1.8.7c5.1-3.7,5.8-17.1,5.1-17.5-.4-.3-.6.3-1.9-1.4-2.2-2.7-1.8-8.9-3.9-11.1,0,0,.2-.2,1.2-.2.9,0,4.5-1.3,4.6-5.6,0-5.3-4.3-7.2-4.3-7.2,0,0,.5-.9.5-2.1,0-4-4.4-4-4.4-4.5,2.1-.4,4.3-2.9,4.5-4.7.5-5.1-5.2-7.9-7.6-5.5.8.7,2.6,1.4,2.6,3.3,0,3.2-3.5,4.9-3.5,4.9,0,0,.6-1.3.6-2.8,0-1.6-.9-4.3-4.3-4.3-4.3,0-5.3,3.7-5.3,3.7,1.1,0,4.4-.4,4.4,1.7,0,2.6-4.3,4.1-4.3,8.3s3.7,7.3,7.9,7.6c1.1.1,1.3.1,2.1.1s1.3,1,3.1,1c2.2,0,2.6-1,3.4-1,.7,0,.7.7.7,1.1s.1,1.5-2.5,1.5c-2.8,0-7.9-1.4-12.5-1.4-3.6,0-4.1.1-4.3.3.2-.4.8-1.5.8-2.5-.8-.4-1.6-2.8-2-2.8,3.9-3.5,3.3-6.6,3.3-7.3-.3-.9-.8-1-1.8-1-.9,0-1.5.4-1.5.4,0,0-.2-3.3-.8-4.5-1.3-1.9-7.4-3.2-9.7.4,0,0-.9,2.2-1.2,2.9-1.9-.8-3,.2-3,.2,0,0,.1,1,.1,1.7,0,.6-.1,1.5-.1,2.3s1.7,3.8,1.7,3.8c-.9,1.4-4.2,2.9-4.2,2.9.8,1.5,1.7,4,1.7,4Z"/>
      <path class="cls-3" d="M20.8,129.4c.4-.3,1.5-2.1,2.6-2.1-.1.6-1.7,2-2.3,3.1-.5,1.1.4,2.2.8,3-.1-.7,1.6-1.9,2.2-2.5.5-.6,1-.4.6.4-.5,1-1.9,2-1.9,3.5,0,.8.6,1.4,1.4,1.8,0,0,.3-2.6,1.4-1.9.4.3-1.7,4.3,0,5.9.3-1.2,2.9-3.2,2.9-3.7s-.9-2.3,0-2.3c.5,0,1,1.6,1.4,1.6s1.1-.4,1.1-1-1.6-3.3-.6-3.3c.5,0,1.5,1.8,1.8,1.8s.5-.2.8-1.6-1.3-2-.7-3.4c0,0,1.4.7,1.9,1.5s1.4-1.4,1.4-2.2c-.3-.3-.6-1.5-1.1-2.2-.5-.6-1.1-.8-1.1-1,0-.4.5-.5,2.3-2.4,1.8-2,1.5-4.3,1.5-4.6-1.1-1-2,.5-2.9,0s-.5-3.3-.7-4.2c0,0-1.2,1.9-1.4,1.6-.3-.3.1-1.1.4-2s-1.3-1.4-1.3-1.4c0,0-.4,1.9-1,1.8s-.5-1.9-.5-1.9c0,0-1.3-.7-1.5.8-.3,1.8-1.2.3-1.6-.5-.6.3-.4,2.3-.4,3.1,0,.7-1.3-.6-1.9-.9.2.6-.5,1.6-.5,2.3s-2.4-.4-2.9.1c0,.3-.3,2.6.1,3.9.6,1.7,1.5,2.4,1.5,3.4,0,.9-1.4,1.4-4,3,1.2,0,1.2,3.3,2.2,2.5ZM29.6,116.1c.5.6,1.6,1.5,2.4.8.4.1.5.2.1.7s-.4,1.7-1.2,1.6c-1.4-.1-.8-2.2-1.4-2.6l.1-.5ZM28.2,115.9l.2.4c-.4.1-.5,2.4-1.5,2.4-1.3,0-.3-1.6-1.3-1.9-.1,0,1.8-.2,2.6-.9ZM22.3,119.2c0-1.4,1-1.5,1.3-1.5.8,0,.7,2.3,1.1,2.8s1.4.3,1.5.6c-.3.5-1.3,1.1-1.3,1.8s.6.9.9.9c.4,0,2.2-.5,2.2-1.5,0-.5-.4-.8-.6-1.2-.2-.4-.1-.8-.3-.9.7-.1,1.4-.3,1.9-.3s.6.4.6.8c0,.5-1,.8-1,1.3s1.3,1.7,1.7,1.7,1.4-.4,1.4-1-.4-1.4,0-1.8c.2-.2.8.2.8.2.8-.8,1.3-2.4,2.9-2.6,1.6,2.8-1.7,3.8-1.7,3.8l-1.3-.5c.5,1.6-.9,2.1-.8,2.8.1,1.8-.2,2.3-.9,2.9-.4-.1-1.3-.2-1.4.2.8,1.5-1.6,3.1-1.4,3.7-.4-.2-1.2-2-1.5-2.4s.3-.9-.1-1.7c-.2-.5-1.2.1-1.4-.8-.1-.8.2-2.5-.8-3.1.2-1.5-1.8-2.6-1.8-4.2ZM48.7,125.4c0,1.2.6,2.9,2.5,2.9,2.1,0,2.2-1,3.4-1s1.8,1,1.8,2.1-.6,2.5-3.5,2.5c-5.2,0-6.6-1.4-12.7-1.4s-5.4,2.3-9.1,6.1c-3.8,3.8-6.7,6.5-6.7,6.5l.2.6c-1.8,1.9-2.7,11.1-3.6,14.4-.9,3.2-5.9,4.6-5.9,4.6l-1.1,6.2,2.4-2.1s-.2-.5-.2-1.8c-.1-1.4,3.7-4.1,5.5-5.3-.3,1.7-4.5,5.1-4.5,5.1,0,0,.4,1.1.5,2.4s1,3.6,1,3.6l.2-.4s.1-1.4.4-2c.6-1.2,3.7-5.4,3.7-5.4l2,.3c1.1-1.7-.4-3.2-.8-4.2.8-.8,1.3-.4,2.3.5.8-1.8.1-2-.5-3.4s.5-1.1,2.1-.3c.6-1,.5-1.8-.5-3.8-.9-2,1.1-1.1,2-.4.7-1.1.4-1.3-.5-3.4-.8-2.1.5-1.8,1.9-.8.9-2.4.2-2-.5-3.5-.6-1.6.9-1.4,2-.5,1.1-1,.2-1.3.2-3.8,0-1.8,2.1-5.3,5.8-6.6,1.3,1.3-1.7,1.5-1.7,2.9,0,.8.6-.9,3.5-.9s3.1,1.4,3.8,1.4c.8,0,.1-2.1.1-2.1,3.5,0,2.3,3.4,2.3,7.6s5.8,8.2,5.9,10.5c-2.1,1.3-2.6,6.6-4.5,9.5-1.1,1.2-2.3,1.3-3.7,1.8l-1.3,5.3c1.1-1.1,3.8-1.9,3.8-1.9-1.3-2.6.4-3.2,1.1-3.8.7-.6,3.5-4.3,3.5-4.3l.5.5s-1.4,4.1-3.7,5.1c-.6,1.3,1.5,4.7,2,5.5.2-.3.5-.6.5-.6,0,0,.2-4.5.9-5.3.8-.9,1.1-.8,2.6-.2.7-.7.3-2.5-.3-3.6.7-1.3,1.7,1.2,2.1.8,1.2-1.6-1.1-2.9-.3-4.5,0,0,1.3,1.2,1.6,1s.2-1.1-.2-2c-1.6-3.8.8-1.3,1.1-1.4.5-.3-.1-2.7-.7-3.3-.4,1.1-2.6,5.1-3.8,8-.2.5-1.4.7.2-4.2,1.9-5.8,4-4.9,4.9-4.6-.1-2.7-2.8-2.9-3-4.7-2.7-1.1-.5-10.4-6-12.6l7-.5c-1.4,1.4-4,.9-4,.9,0,0,0,.8,2.1.8s3.8-2,3.8-4.6c0-1.9-2.3-6.2-4.6-6.2-1.9,0-2.6,2.9-3.1,2.6-1.1-.6-.3-1.1.1-1.8,1.4-2.5,3.8-1.9,3.8-3.9,0-3.8-4.8-3.9-5.5-3.2-.6.6,2.2,0,2.2,2.4,0,.4,1.4-1.2,1.4-1.1-.3,2-4.2,3.3-4.2,7ZM43.3,123.9c.5,1,5,.7,5-3.4,0-2.2-1.8-2.6-1.8-3.2,0-1.5,8.1-2.1,8.1-6,0-2-.6-3-.6-3,0,0,.2,3.1-.8,3.1-1.5,0-.1-1.8-.1-2.7,0-3.3-3.5-2.6-3.5-2.6,0,0,2.1.1,2.1,3.4,0,4.2-6.2,6.8-6.6,6.3-.5-.5,1.7-1.9,1.7-4.2,0-1.1-.5-3.5-2.9-3.5-2.9,0-4.7,2-3.6,1.8,1.1-.2,3.4.6,3.4,2.6,0,3.3-4.4,4.1-4.4,8.3,0,5.3,5.3,6.5,7,6.5s2-.2,2-.2c-.4-.5-.3-1.7-.3-1.7,0,0-.9.3-2,.3-4.1,0-4.5-3.1-4.5-4.1,0-1.1,1.1-3.1,2.7-2.9,3.4.2,1.3,4-.9,5.2ZM39.4,158.3c.5-.7,1.4,1.7,1.4,1.7,2.1-1.9-.2-2.9.5-3.5.9-.8,2.4.5,2.4.5,1.1-1-.6-2-.1-2.6,1-1.3,1.3-.1,2-.4s1.4-.9.7-1.9c-.8-1-3.2-5.3-1.1-8.4,0,0-1.4.5-1.7,1.6s.8,6.8.8,7.7l-6.2,5.3s-.5-.5.4-1.5c.8-1.1,4.7-4.3,4.7-4.3-1-1.3.5-4.5-1.5-5.7-.5-.2-2-.7-.8-1.6.8-.6,2.2-.3,2.2-3s-2.5-2.9-2.5-2.9c.3-.8,2.5-.6,3.1-1.4-1.1-.5-1.1-.6-2-.6-.8,0-3.2,1.2-3.2,4.9s2.7,8.5,2.3,8.9c-.5.5-3.3,2.3-3.9,3.8-.6,1.4-3.9,3.6-3.9,3.6l-3.2,5.2,2.1-1.2s.8-2.5,2-3.3c1.8-1.1,3.4-2.9,3.7-2.6s-1.4,2.5-3.1,3.4c-.5,1.1-1.8,4.9-1.7,5.7,0,0,3.8-4.5,4.8-5,1.1-.5,1.4.9,1.4.9,1.4-1.3-.1-2.6.4-3.3ZM32.2,157c.7-.6,2.1-.8,3-1.7-1.8.4-3.5.9-3.5.9l-2.1,3.2,1.7-.7c0,.1.2-1.1.9-1.7ZM14.8,161.8s2-.5,3.6-1.3c-1.7.2-4.4.2-4.4.2l-2.4,5.1,2.4-1.4c-.1,0-.1-2.3.8-2.6ZM11.2,129.6c0,1.8,2.3,2.6,2.5,3.5s-1.8-.6-1.8-.3c.3,2.5,2.4,2.8,3.2,4.1.5.8-1.9-.3-1.9-.1.5,2.9,3.6,1.8,4.1,3.8.3,1.1-1.9-.6-2,.3,0,.6,1.2,4,1.8,4.1.7.2,2.9-.7,3.8-1.1,1-.4,2.9-.8,3.1-1.7-1.1-1.7-3.8-5.5-4.2-9-2.2-2.3-4.4-5.7-4.4-8.5s.8-5,.8-5l-3.1-5.8-.5,2.7s2.9,2.7,2.8,3.6c-.1.9-.8,3.7-.8,3.7-.5.8-.4-3.6-.4-3.6l-3.3-4.2s-.2,2.8,0,3.6c.4,1.6,1.8,2.4,1.8,3.4s-1.3,2.6-2,3c-.2,1.2,2.2,2.4,2.3,3.5-.5.7-1.8-.5-1.8,0ZM16.7,122.5c.5-.8,2.3-1.2,2.2-1.9-.1-.8-2.2-5.5-2.2-6.7l-1.3,2.5s2,2.8,2,3.7c-.1,1-.9,1.2-.7,2.4ZM47.3,161.4c-2.2.4-5,1.1-5,1.1l-2.5,4.1,2.9-.6c.3-1.4.4-2.2,1-2.7,1.3-1.3,3.2-1.3,3.6-1.9Z"/>
    </g>
    <g>
      <path d="M18.8,42.5c-.1,1.5-1,.2-1,.2,0,0-2.3-2.2-2.3-5.5.7-.4,1-1.8,1.3-2,.3-.1,2.1-1,2.1-2,0-.9-2.6-6.8-2.6-9l-2.2,3.1-1.7-3-1.4,3.6-1.4-1.7s-.7,5.2-.4,6.2c.7,2.6,1.8,2.3,1.8,3.2,0,1.4-2.4,2.4-2.4,2.4.3.7,1.7,7.4,2.7,10.6,1.1,3.7,2,4,2.7,5.6.6,1.3.9,4.1,2.4,4.1s5.7-1.5,5.7-1.5c-1.4,1.3-2,14.9-4.3,14.9-1.5,0-5.4.1-5.4.1,0,0-1.7,2.7-3,8l3.3-1.9-1,5.2,4-3,1.7,5.1,1.5-2.4s-.4-1.2.9-2.8c1.1-1.4,2.7-3.8,2.7-3.8l2.1.5s1.1-1.6.8-3.1l.6-.1.6-1.4.9-2.5c.3-.8,3.8-9.8,4.9-12.6.2-.5.8-2.1.6-2.9-.1-.5-.2-1-.2-1.9,0-.8.7-2.4,2.1-3.8v.1c0,1,.7,1.2,1.1,1.2s.6-.2.9-.3c.4-.3,1.1-.8,2.6-.8h.5c-1.5.6-3.2,2.3-3.2,5.7,0,2.3,1,5,1.7,6.9.2.5.4,1.2.6,1.6-.1.1-.2.2-.4.3-1.5,1.1-3,2.3-3.5,3.5v.1c-2.3.4-4.5.6-4.5.6l-3.4,6.1,2.2-.7-2.1,4.6,4.1-1.7s-.9,3.1,0,4.3c.1-.1,1.5-1,1.5-1,0,0,.7-1.7,1.1-2.1l3-3,.6,1.6c3.1-1.5,8.8-8.8,9-10.1,0-1.3-2.2-3.2-2.2-6.1,0-1.7.7-2.4.7-2.4,0,2.1,4.9,6.7,5.4,8-1.1.6-3.3,7.1-3.5,8-.9,0-5.6,1.1-5.6,1.1,0,0-2.7,2.9-3.5,6.3l3.8-.8-.6,4.4,1.7-.3s1.6-2.6,4.2-2.8l2.3,3.8,1.6-1.7s.2-5,1-5.5l1.8.7c5.1-3.7,5.8-17,5.1-17.4-.4-.3-.6.3-1.9-1.4-2.1-2.7-1.8-8.9-3.8-11,0,0,.2-.2,1.2-.2.9,0,4.5-1.3,4.6-5.5,0-5.3-4.3-7.2-4.3-7.2,0,0,.5-.9.5-2.1,0-3.9-4.3-3.9-4.4-4.5,2.1-.4,4.3-2.9,4.5-4.7.5-5.1-5.2-7.9-7.6-5.5.8.7,2.6,1.4,2.6,3.3,0,3.2-3.5,4.9-3.5,4.9,0,0,.6-1.3.6-2.8,0-1.6-.9-4.3-4.3-4.3-4.3,0-5.3,3.7-5.3,3.7,1.1,0,4.4-.4,4.4,1.7,0,2.6-4.3,4.1-4.3,8.3s3.7,7.3,7.8,7.6c1.1.1,1.3.1,2.1.1s1.3,1,3,1c2.1,0,2.6-1,3.4-1,.7,0,.7.7.7,1.1s.1,1.5-2.5,1.5c-2.8,0-7.9-1.4-12.4-1.4-3.6,0-4.1.1-4.3.3.2-.4.8-1.5.8-2.5-.8-.4-1.6-2.8-2-2.8,3.9-3.5,3.3-6.6,3.3-7.3-.3-.9-.8-1-1.8-1-.9,0-1.5.4-1.5.4,0,0-.2-3.3-.8-4.4-1.2-1.9-7.3-3.1-9.7.4,0,0-.9,2.2-1.2,2.8-1.9-.7-3,.2-3,.2,0,0,.1,1,.1,1.7,0,.6-.1,1.5-.1,2.3s1.7,3.8,1.7,3.8c-.9,1.4-4.2,2.9-4.2,2.9.5,1.1,1.5,3.5,1.5,3.5Z"/>
      <path class="cls-2" d="M19.9,41.8c.4-.3,1.5-2.1,2.6-2.1-.1.6-1.7,2-2.2,3.1s.4,2.2.8,3c-.1-.7,1.6-1.9,2.2-2.5.5-.6,1-.4.6.4-.4,1-1.9,2-1.9,3.5,0,.8.6,1.4,1.3,1.8,0,0,.3-2.6,1.3-1.9.4.3-1.7,4.3,0,5.9.3-1.2,2.9-3.1,2.9-3.7,0-.5-.9-2.3,0-2.3.5,0,1,1.6,1.4,1.6s1.1-.4,1.1-1-1.6-3.3-.6-3.3c.5,0,1.5,1.8,1.8,1.8s.5-.2.8-1.6c.3-1.4-1.3-2-.7-3.4,0,0,1.4.7,1.9,1.5s1.3-1.4,1.4-2.2c-.3-.3-.6-1.5-1.1-2.2-.5-.6-1.1-.8-1.1-1,0-.4.5-.4,2.3-2.4s1.5-4.2,1.5-4.6c-1.1-1-2,.5-2.9,0s-.5-3.2-.7-4.2c0,0-1.2,1.9-1.4,1.6-.3-.3.1-1.1.4-2s-1.3-1.4-1.3-1.4c0,0-.4,1.9-1,1.8s-.5-1.9-.5-1.9c0,0-1.3-.7-1.5.8-.3,1.8-1.2.3-1.6-.5-.6.3-.4,2.3-.4,3.1,0,.7-1.3-.6-1.9-.9.2.6-.5,1.6-.5,2.3s-2.3-.4-2.9.1c0,.3-.3,2.6.1,3.8.6,1.7,1.5,2.4,1.5,3.4,0,.9-1.4,1.4-4,3,1.3.2,1.3,3.5,2.3,2.6ZM28.7,28.6c.5.6,1.6,1.5,2.4.8.4.1.5.2.1.7s-.4,1.7-1.2,1.6c-1.4-.1-.8-2.2-1.3-2.6v-.5ZM27.2,28.5l.2.4c-.4.1-.5,2.3-1.5,2.3-1.3,0-.3-1.6-1.3-1.9,0,0,1.9-.1,2.6-.8ZM21.4,31.7c0-1.3,1-1.5,1.3-1.5.8,0,.7,2.3,1.1,2.8s1.3.3,1.5.6c-.3.5-1.3,1.1-1.3,1.8s.6.9.9.9c.4,0,2.2-.5,2.2-1.5,0-.5-.4-.8-.6-1.2s-.1-.8-.3-.9c.7-.1,1.4-.3,1.9-.3s.6.4.6.8c0,.5-1,.8-1,1.3s1.3,1.7,1.7,1.7,1.3-.4,1.3-1-.4-1.4,0-1.8c.2-.2.8.2.8.2.8-.8,1.3-2.4,2.9-2.6,1.6,2.8-1.7,3.8-1.7,3.8l-1.3-.5c.5,1.6-.9,2.1-.8,2.8.1,1.8-.2,2.3-.9,2.9-.4-.1-1.3-.2-1.3.2.8,1.5-1.6,3-1.3,3.7-.4-.2-1.2-2-1.5-2.3-.3-.4.3-.9-.1-1.7-.2-.5-1.2.1-1.3-.8-.1-.8.2-2.5-.8-3.1-.1-1.6-2-2.7-2-4.3ZM47.7,37.9c0,1.2.6,2.9,2.4,2.9,2.1,0,2.2-1,3.4-1s1.7,1,1.7,2.1-.6,2.4-3.5,2.4c-5.2,0-6.5-1.4-12.7-1.4-5.8,0-5.4,2.3-9.1,6.1-3.7,3.7-6.7,6.5-6.7,6.5l.2.6c-1.8,1.9-2.7,11.1-3.6,14.3-.9,3.2-5.8,4.6-5.8,4.6l-1.1,6.2,2.4-2.1s-.2-.4-.2-1.8c-.1-1.3,3.7-4.1,5.5-5.2-.3,1.7-4.5,5.1-4.5,5.1,0,0,.4,1.1.5,2.4s1,3.6,1,3.6l.2-.4s.1-1.4.4-2c.6-1.2,3.7-5.4,3.7-5.4l2,.3c1-1.6-.4-3.2-.7-4.2.8-.8,1.3-.4,2.2.5.7-1.8.1-1.9-.5-3.4-.6-1.4.5-1.1,2.1-.3.6-1,.4-1.8-.4-3.8-.9-2,1-1,1.9-.4.7-1,.4-1.3-.4-3.4-.8-2.1.4-1.8,1.9-.7.9-2.4.1-1.9-.4-3.5-.6-1.6.9-1.4,2-.4,1-1,.2-1.3.2-3.8,0-1.8,2.1-5.3,5.8-6.6,1.3,1.3-1.7,1.5-1.7,2.9,0,.8.6-.9,3.5-.9s3.1,1.4,3.8,1.4.1-2.1.1-2.1c3.4,0,2.2,3.4,2.2,7.6s5.8,8.2,5.9,10.5c-2.1,1.2-2.6,6.5-4.5,9.4-1,1.2-2.3,1.3-3.6,1.8l-1.3,5.3c1-1.1,3.7-1.9,3.7-1.9-1.3-2.5.4-3.2,1-3.8.7-.6,3.5-4.3,3.5-4.3l.4.4s-1.4,4-3.7,5.1c-.6,1.3,1.5,4.6,2,5.5.2-.3.5-.6.5-.6,0,0,.2-4.5.9-5.3.8-.9,1-.8,2.6-.2.7-.7.3-2.5-.3-3.6.7-1.3,1.7,1.2,2.1.8,1.2-1.6-1.1-2.9-.3-4.5,0,0,1.3,1.2,1.6,1s.2-1.1-.1-1.9c-1.6-3.7.8-1.3,1-1.4.5-.3-.1-2.7-.7-3.3-.4,1-2.6,5.1-3.8,8-.2.5-1.3.7.2-4.2,1.9-5.8,4-4.9,4.9-4.6-.1-2.7-2.8-2.9-3-4.7-2.7-1.1-.5-10.3-6-12.6l7-.5c-1.3,1.3-4,.9-4,.9,0,0,0,.8,2.1.8s3.8-2,3.8-4.6c0-1.9-2.3-6.1-4.6-6.1-1.9,0-2.6,2.8-3.1,2.6-1.1-.6-.3-1,.1-1.7,1.4-2.4,3.8-1.9,3.8-3.9,0-3.8-4.8-3.9-5.5-3.2-.6.6,2.2,0,2.2,2.4,0,.4,1.4-1.2,1.4-1.1-.1,1.8-4,3.1-4,6.8ZM42.3,36.4c.5,1,5,.7,5-3.4,0-2.2-1.8-2.6-1.8-3.2,0-1.5,8.1-2.1,8.1-6,0-2-.6-3-.6-3,0,0,.2,3.1-.8,3.1-1.5,0-.1-1.8-.1-2.7,0-3.3-3.5-2.5-3.5-2.5,0,0,2.1.1,2.1,3.4,0,4.2-6.1,6.7-6.6,6.3-.4-.4,1.6-1.9,1.6-4.2,0-1.1-.4-3.5-2.8-3.5-2.8,0-4.7,1.9-3.6,1.8,1.1-.2,3.4.6,3.4,2.5,0,3.3-4.3,4.1-4.3,8.3,0,5.2,5.3,6.5,7,6.5,1.6,0,2-.2,2-.2-.4-.5-.3-1.6-.3-1.6,0,0-.9.3-1.9.3-4,0-4.5-3.1-4.5-4.1s1.1-3.1,2.7-2.9c3.2.1,1.1,3.9-1.1,5.1ZM38.4,70.7c.5-.7,1.3,1.6,1.3,1.6,2.1-1.9-.2-2.9.4-3.4.9-.7,2.4.4,2.4.4,1.1-1-.6-2-.1-2.6,1-1.3,1.3-.1,1.9-.4.7-.3,1.4-.9.7-1.9s-3.1-5.2-1-8.4c0,0-1.3.4-1.6,1.6-.3,1.1.8,6.8.8,7.6l-6.1,5.2s-.4-.4.4-1.5c.8-1,4.7-4.3,4.7-4.3-1-1.3.5-4.5-1.5-5.7-.5-.2-2-.7-.7-1.6.8-.6,2.2-.3,2.2-3s-2.5-2.9-2.5-2.9c.3-.8,2.5-.6,3.1-1.4-1.1-.5-1.1-.6-1.9-.6s-3.2,1.2-3.2,4.9,2.7,8.4,2.2,8.9-3.3,2.3-3.9,3.7c-.6,1.4-3.9,3.5-3.9,3.5l-3.1,5.2,2.1-1.2s.8-2.5,2-3.3c1.7-1,3.4-2.9,3.6-2.6.3.3-1.4,2.5-3.1,3.4-.5,1-1.8,4.9-1.6,5.7,0,0,3.7-4.5,4.8-4.9,1-.4,1.4.9,1.4.9,1.3-.9-.3-2.2.2-2.9ZM31.3,69.4c.7-.6,2.1-.8,3-1.7-1.8.4-3.5.9-3.5.9l-2.1,3.2,1.7-.7c-.1,0,.2-1.1.9-1.7ZM13.9,74.1s2-.5,3.6-1.3c-1.7.2-4.4.2-4.4.2l-2.4,5.1,2.4-1.3c-.1-.1-.1-2.4.8-2.7ZM10.3,42.1c0,1.8,2.3,2.6,2.5,3.5.1.9-1.8-.6-1.8-.3.3,2.5,2.4,2.8,3.1,4.1.4.8-1.9-.3-1.9-.1.5,2.9,3.6,1.8,4.1,3.7.3,1.1-1.9-.6-2,.3,0,.6,1.2,3.9,1.8,4.1.7.1,2.8-.7,3.8-1,1-.4,2.8-.7,3.1-1.6-1-1.6-3.8-5.5-4.2-9-2.2-2.3-4.3-5.7-4.3-8.5s.8-5,.8-5l-3.1-5.8-.6,2.6s2.8,2.7,2.8,3.6c-.1.9-.8,3.7-.8,3.7-.5.7-.4-3.6-.4-3.6l-3.3-4.2s-.2,2.8,0,3.6c.4,1.6,1.8,2.4,1.8,3.3,0,1-1.3,2.6-1.9,3-.1,1.2,2.2,2.4,2.2,3.4-.4.8-1.7-.3-1.7.2ZM15.8,35c.5-.8,2.3-1.2,2.2-1.9-.1-.8-2.2-5.5-2.2-6.6l-1.3,2.4s2,2.8,2,3.7c-.1,1-.9,1.2-.7,2.4ZM46.3,73.7c-2.1.4-5,1-5,1l-2.4,4,2.9-.6c.3-1.4.4-2.2,1-2.7,1.2-1,3.1-1,3.5-1.7Z"/>
    </g>
    <g>
      <path d="M145.5,130.2c-.1,1.5-1,.2-1,.2,0,0-2.3-2.2-2.3-5.5.7-.4,1-1.8,1.3-2,.3-.1,2.1-1,2.1-2,0-.9-2.6-6.8-2.6-9l-2.2,3.1-1.7-3-1.4,3.6-1.4-1.7s-.7,5.2-.4,6.2c.7,2.6,1.8,2.3,1.8,3.2,0,1.4-2.4,2.4-2.4,2.4.3.7,1.7,7.4,2.7,10.6,1.1,3.7,2,4,2.7,5.6.6,1.3.9,4.1,2.4,4.1s5.7-1.5,5.7-1.5c-1.4,1.3-2,14.9-4.3,14.9-1.5,0-5.4.1-5.4.1,0,0-1.7,2.7-3,8l3.3-1.9-1,5.2,4-3,1.7,5.1,1.5-2.4s-.4-1.2.9-2.8c1.1-1.4,2.7-3.8,2.7-3.8l2.1.5s1.1-1.6.8-3.1l.6-.1.6-1.4.9-2.5c.3-.8,3.8-9.8,4.9-12.6.2-.5.8-2.1.6-2.9-.1-.5-.2-1-.2-1.9,0-.8.7-2.4,2.1-3.8v.1c0,1,.7,1.2,1.1,1.2s.6-.2.9-.3c.4-.3,1.1-.8,2.6-.8h.5c-1.5.6-3.2,2.3-3.2,5.7,0,2.3,1,5,1.7,6.9.2.5.4,1.2.6,1.6-.1.1-.2.2-.4.3-1.5,1.1-3,2.3-3.5,3.5v.1c-2.3.4-4.5.6-4.5.6l-3.4,6.1,2.2-.7-2.1,4.6,4.1-1.7s-.9,3.1,0,4.3c.1-.1,1.5-1,1.5-1,0,0,.7-1.7,1.1-2.1l3-3,.6,1.6c3.1-1.5,8.8-8.8,9-10.1,0-1.3-2.2-3.2-2.2-6.1,0-1.7.7-2.4.7-2.4,0,2.1,4.9,6.7,5.4,8-1.1.6-3.3,7.1-3.5,8-.9,0-5.6,1.1-5.6,1.1,0,0-2.7,2.9-3.5,6.3l3.8-.8-.6,4.4,1.7-.3s1.6-2.6,4.2-2.8l2.3,3.9,1.6-1.7s.2-5,1-5.5l1.8.7c5.1-3.7,5.8-17,5.1-17.4-.4-.3-.6.3-1.9-1.4-2.1-2.7-1.8-8.9-3.8-11,0,0,.2-.2,1.2-.2.9,0,4.5-1.3,4.6-5.5,0-5.3-4.3-7.2-4.3-7.2,0,0,.5-.9.5-2.1,0-3.9-4.4-3.9-4.4-4.5,2.1-.4,4.3-2.9,4.5-4.7.5-5.1-5.2-7.9-7.6-5.5.8.7,2.6,1.4,2.6,3.3,0,3.2-3.5,4.9-3.5,4.9,0,0,.6-1.3.6-2.8,0-1.6-.9-4.3-4.3-4.3-4.3,0-5.3,3.7-5.3,3.7,1.1,0,4.4-.4,4.4,1.7,0,2.6-4.3,4.1-4.3,8.3s3.7,7.3,7.8,7.6c1.1.1,1.3.1,2.1.1s1.3,1,3,1c2.1,0,2.6-1,3.4-1,.7,0,.7.7.7,1.1s.1,1.5-2.5,1.5c-2.8,0-7.9-1.4-12.4-1.4-3.6,0-4.1.1-4.3.3.2-.4.8-1.5.8-2.5-.8-.4-1.6-2.8-2-2.8,3.9-3.5,3.3-6.6,3.3-7.3-.3-.9-.8-1-1.8-1-.9,0-1.5.4-1.5.4,0,0-.2-3.3-.8-4.4-1.2-1.9-7.3-3.1-9.7.4,0,0-.9,2.2-1.2,2.8-1.9-.7-3,.2-3,.2,0,0,.1,1,.1,1.7,0,.6-.1,1.5-.1,2.3s1.7,3.8,1.7,3.8c-.9,1.4-4.2,2.9-4.2,2.9.5,1,1.5,3.4,1.5,3.4Z"/>
      <path class="cls-2" d="M146.6,129.5c.4-.3,1.5-2.1,2.6-2.1-.1.6-1.7,2-2.3,3.1-.5,1.1.4,2.2.8,3-.1-.7,1.6-1.9,2.2-2.5.5-.6,1-.4.6.4-.4,1-1.9,2-1.9,3.5,0,.8.6,1.4,1.4,1.8,0,0,.3-2.6,1.4-1.9.4.3-1.7,4.3,0,5.9.3-1.2,2.9-3.1,2.9-3.7,0-.5-.9-2.3,0-2.3.5,0,1,1.6,1.4,1.6s1.1-.4,1.1-1-1.6-3.3-.6-3.3c.5,0,1.5,1.8,1.8,1.8s.5-.2.8-1.6c.3-1.4-1.3-2-.7-3.4,0,0,1.4.7,1.9,1.5s1.4-1.4,1.4-2.2c-.3-.3-.6-1.5-1.1-2.2-.5-.6-1.1-.8-1.1-1,0-.4.5-.4,2.3-2.4s1.5-4.2,1.5-4.6c-1.1-1-2,.5-2.9,0s-.5-3.2-.7-4.2c0,0-1.2,1.9-1.4,1.6-.3-.3.1-1.1.4-2s-1.3-1.4-1.3-1.4c0,0-.4,1.9-1,1.8s-.5-1.9-.5-1.9c0,0-1.3-.7-1.5.8-.3,1.8-1.2.3-1.6-.5-.6.3-.4,2.3-.4,3.1,0,.7-1.3-.6-1.9-.9.2.6-.5,1.6-.5,2.3s-2.3-.4-2.9.1c0,.3-.3,2.6.1,3.8.6,1.7,1.5,2.4,1.5,3.4,0,.9-1.4,1.4-4,3,1.1.2,1.2,3.4,2.2,2.6ZM155.4,116.3c.5.6,1.6,1.5,2.4.8.4.1.5.2.1.7s-.4,1.7-1.2,1.6c-1.4-.1-.8-2.2-1.3-2.6v-.5ZM153.9,116.1l.2.4c-.4.1-.5,2.3-1.5,2.3-1.3,0-.3-1.6-1.3-1.9,0,.1,1.8,0,2.6-.8ZM148.1,119.4c0-1.3,1-1.5,1.3-1.5.8,0,.7,2.3,1.1,2.8s1.3.3,1.5.6c-.3.5-1.3,1.1-1.3,1.8s.6.9.9.9c.4,0,2.2-.5,2.2-1.5,0-.5-.4-.8-.6-1.2s-.1-.8-.3-.9c.7-.1,1.4-.3,1.9-.3s.6.4.6.8c0,.5-1,.8-1,1.3s1.3,1.7,1.7,1.7,1.3-.4,1.3-1-.4-1.4,0-1.8c.2-.2.8.2.8.2.8-.8,1.3-2.4,2.9-2.6,1.6,2.8-1.7,3.8-1.7,3.8l-1.3-.5c.5,1.6-.9,2.1-.8,2.8.1,1.8-.2,2.3-.9,2.9-.4-.1-1.3-.2-1.3.2.8,1.5-1.6,3-1.3,3.7-.4-.2-1.2-2-1.5-2.3-.3-.4.3-.9-.1-1.7-.2-.5-1.2.1-1.3-.8-.1-.8.2-2.5-.8-3.1-.1-1.6-2-2.7-2-4.3ZM174.3,125.6c0,1.2.6,2.9,2.4,2.9,2.1,0,2.2-1,3.4-1s1.7,1,1.7,2.1-.6,2.4-3.5,2.4c-5.2,0-6.5-1.4-12.7-1.4-5.8,0-5.4,2.3-9.1,6.1-3.7,3.7-6.7,6.5-6.7,6.5l.2.6c-1.8,1.9-2.7,11.1-3.6,14.3-.9,3.2-5.8,4.6-5.8,4.6l-1.1,6.2,2.4-2.1s-.2-.4-.2-1.8c-.1-1.3,3.7-4.1,5.5-5.2-.3,1.7-4.5,5.1-4.5,5.1,0,0,.4,1.1.5,2.4s1,3.6,1,3.6l.2-.4s.1-1.4.4-2c.6-1.2,3.7-5.4,3.7-5.4l2,.3c1-1.6-.4-3.2-.7-4.2.8-.8,1.3-.4,2.2.5.7-1.8.1-1.9-.5-3.4-.6-1.4.5-1.1,2.1-.3.6-1,.5-1.8-.4-3.8s1-1,1.9-.4c.7-1,.4-1.3-.5-3.4-.8-2.1.5-1.8,1.9-.7.9-2.4.1-1.9-.5-3.5s.9-1.4,2-.5c1-1,.2-1.3.2-3.8,0-1.8,2.1-5.3,5.8-6.6,1.3,1.3-1.7,1.5-1.7,2.9,0,.8.6-.9,3.5-.9s3.1,1.4,3.8,1.4.1-2.1.1-2.1c3.4,0,2.2,3.4,2.2,7.6s5.8,8.2,5.9,10.5c-2.1,1.2-2.6,6.5-4.5,9.4-1,1.2-2.3,1.3-3.6,1.8l-1.3,5.3c1-1.1,3.7-1.9,3.7-1.9-1.3-2.5.4-3.2,1-3.8.7-.6,3.5-4.3,3.5-4.3l.5.5s-1.4,4-3.7,5.1c-.6,1.3,1.5,4.6,2,5.5.2-.3.5-.6.5-.6,0,0,.2-4.5.9-5.3.8-.9,1-.8,2.6-.2.7-.7.3-2.5-.3-3.6.7-1.3,1.7,1.2,2.1.8,1.2-1.6-1.1-2.9-.3-4.5,0,0,1.3,1.2,1.6,1s.2-1.1-.1-1.9c-1.6-3.7.8-1.3,1-1.4.5-.3-.1-2.7-.7-3.3-.4,1-2.6,5.1-3.8,8-.2.5-1.3.7.2-4.2,1.9-5.8,4-4.9,4.9-4.6-.1-2.7-2.8-2.9-3-4.7-2.7-1.1-.4-10.3-6-12.6l7-.5c-1.3,1.3-4,.9-4,.9,0,0,0,.8,2.1.8s3.8-2,3.8-4.6c0-1.9-2.3-6.1-4.6-6.1-1.9,0-2.6,2.8-3.1,2.6-1.1-.6-.3-1,.1-1.7,1.4-2.4,3.8-1.9,3.8-3.9,0-3.8-4.8-3.9-5.5-3.2-.6.6,2.2,0,2.2,2.4,0,.4,1.4-1.2,1.4-1.1,0,1.8-3.9,3.1-3.9,6.8ZM169,124c.5,1,5,.7,5-3.4,0-2.2-1.8-2.6-1.8-3.2,0-1.5,8.1-2.1,8.1-6,0-2-.6-3-.6-3,0,0,.1,3.1-.8,3.1-1.5,0-.1-1.8-.1-2.7,0-3.3-3.5-2.5-3.5-2.5,0,0,2.1.1,2.1,3.4,0,4.2-6.1,6.7-6.6,6.3-.4-.4,1.6-1.9,1.6-4.2,0-1.1-.4-3.5-2.8-3.5-2.8,0-4.7,1.9-3.6,1.8,1.1-.2,3.4.6,3.4,2.5,0,3.3-4.3,4.1-4.3,8.3,0,5.2,5.3,6.5,7,6.5s2-.2,2-.2c-.4-.5-.3-1.6-.3-1.6,0,0-.9.3-1.9.3-4,0-4.5-3.1-4.5-4.1s1.1-3.1,2.7-2.9c3.1.2,1.1,4-1.1,5.1ZM165.1,158.4c.5-.7,1.3,1.6,1.3,1.6,2.1-1.9-.2-2.9.5-3.4.9-.7,2.4.4,2.4.4,1.1-1-.6-2-.1-2.6,1-1.3,1.3-.1,1.9-.4.7-.3,1.4-.9.7-1.9s-3.1-5.2-1-8.4c0,0-1.3.4-1.6,1.6-.3,1.1.8,6.8.8,7.6l-6.1,5.2s-.4-.4.4-1.5c.8-1,4.7-4.3,4.7-4.3-1-1.3.4-4.5-1.5-5.7-.5-.2-2-.7-.7-1.6.8-.6,2.2-.3,2.2-3s-2.5-2.9-2.5-2.9c.3-.8,2.5-.6,3.1-1.4-1.1-.5-1.1-.6-1.9-.6s-3.2,1.2-3.2,4.9,2.7,8.4,2.2,8.9-3.3,2.3-3.9,3.7c-.6,1.4-3.9,3.5-3.9,3.5l-3.1,5.2,2.1-1.2s.8-2.5,2-3.3c1.7-1,3.4-2.9,3.6-2.6.3.3-1.4,2.5-3.1,3.4-.5,1-1.8,4.9-1.6,5.7,0,0,3.7-4.5,4.8-4.9,1-.5,1.4.9,1.4.9,1.1-.9-.4-2.3.1-2.9ZM157.9,157.1c.7-.6,2.1-.8,3-1.7-1.8.4-3.5.9-3.5.9l-2.1,3.2,1.7-.7s.3-1.1.9-1.7ZM140.5,161.8s2-.5,3.6-1.3c-1.7.2-4.4.2-4.4.2l-2.4,5.1,2.4-1.3c0-.1-.1-2.4.8-2.7ZM137,129.8c0,1.8,2.3,2.6,2.5,3.5.1.9-1.8-.6-1.8-.3.3,2.5,2.4,2.8,3.1,4.1.4.8-1.9-.3-1.9-.1.5,2.9,3.6,1.8,4.1,3.7.3,1.1-1.9-.6-2,.3,0,.6,1.2,3.9,1.8,4.1.7.1,2.8-.7,3.8-1,1-.4,2.8-.7,3.1-1.6-1-1.6-3.8-5.5-4.2-9-2.2-2.3-4.3-5.7-4.3-8.5s.8-5,.8-5l-3.1-5.8-.6,2.6s2.8,2.7,2.8,3.6c-.1.9-.8,3.7-.8,3.7-.5.7-.4-3.6-.4-3.6l-3.3-4.2s-.2,2.8,0,3.6c.4,1.6,1.8,2.4,1.8,3.3,0,1-1.3,2.6-1.9,3-.2,1.2,2.2,2.4,2.2,3.4-.4.8-1.7-.3-1.7.2ZM142.4,122.7c.5-.8,2.3-1.2,2.2-1.9-.1-.8-2.2-5.5-2.2-6.6l-1.3,2.4s2,2.8,2,3.7c0,1-.8,1.2-.7,2.4ZM173,161.4c-2.1.4-5,1-5,1l-2.4,4,2.9-.6c.3-1.4.4-2.2,1-2.7,1.2-1,3.1-1.1,3.5-1.7Z"/>
    </g>
    <g>
      <path d="M99,30.3c-.8.2-4.9-.8-5.4-2.6-.7-2.6,2.6-4.5,2.6-9.1,0-4.2-4.3-5.1-5.6-5.1-1.5,0-5.1.6-5.1,4.1s3.2,3.7,3.2,3.7c-1.7,5.6.2,9.7,2.6,11.4,3.2,2.4,6.9,1.1,6.9,2.3-.5.1-3.1,3.8-4.2,5.1-.8,1-1.3,1.6-1.3,2.2,0,1,4,.3,6.6-.2,0,0-2.2,2.4-4.8,2.7h-.6c-.6-.1-1.3-.2-1.6-.5-.5-.5-1.5-1.6-.6-4.1.3-.8.4-.9,1-1.8.8-1.1-7.9.6-6.9,8,.4,3.1,2.1,2.8.8,3.4-.5.5-1,1.8-1,1.8,0,0-.4-3.3-.8-6.7-.3-2.4-.6-2.9-.8-5.3-.1-1.4.5-2.4,1.7-2.4,2-.1,3.6.4,3-4-1.5-12.3-13.3-15.6-13.6-15.4,0,0,0,1.1,1.3,2.7s2.1,3.7,2.1,5c-3.1-1.6-7.9-2.8-7.9-2.8v1.2c.6,1.4,3.5,6.3,3.9,9.4-1.5-2.1-2.9-2.9-2.9-2.9.3,1.3.4,3.3.4,8.8.1,8.7,0,20.4,3.4,26.9.4.7.4,6.7,3.1,6.7s2.6.3,2.6.3c0,0,1.3,1.2,1.9,1.1,0,0-3.5,10-6.3,19.9-2.7.8-4.1-1.5-5.1-1.5-1-.1-1.8,5.9,1.2,12,0,0-1.7.8-1.7,3.1,0,2.7,1.8,8.2,6.1,11.1,0,0,.5.3.2-.8-.4-1.1.5-4.7,1-5.4,3.1,2.7,7.3.7,7.3.7l-.8-1.3s-.9.6-.4-6.4c.7.2.7,1.7.8,1.8.4.1.7.1.8-.1.6-.8,2.4-5.5,2.4-5.5.2-.7,1.1-.4,2.7-2.5.6-.8.9-2.3.9-2.3,2.5-.9,2.5-4.5,2.5-4.5.8,0,1.9-3.1,1.8-5.6.3-1.1.8-1.2,1-2,.5.8,5.3,3.2,5.3,10.6,0,5.3-2.4,5.4-1.7,7.5.1.2-1.1,1.2-4.4,1-2.1-.2-4.2-2-5-2.1-2-.4-1.9.7-2.5,2.2s-3.2,18.3,2.3,29.6c-2-.4-8.2-.2-9-2.1-.6-1.5,1.6-3.4,1.6-3.4,0,0-.5-2.6-5.4-2.1-3.9.5-6.8,2.8-8.3,6.3l1.2.2s-1.6,1.2-1.8,2.9c-.1.8-.1,2.1-.1,2.1l1.3-.5s-.1.8.8,5.1c.7,3.8,2.2,4.7,2.2,4.7,0,0,.1-.7.2-1.1l.7-4.3c.2-.8,3.7-.2,3.7-.2,0,0-1.2.4-2.1,1h0c-.3.3-.7,1.7-.8,2.7h0c.7,0,2.3.1,4.1.6,1,.3,1.6,1.1,2.8,1.4.4.1,1.2.1,1.6.2,1.2.3,2.5.7,3.9,1,.3.1.9-.1,1.2,0,1.5.3,2.8.9,4.9.8,1.2-.1,2,.6,3.2.7,3.5.2,4.7-1.6,6.1-1-.1-.9,1.4-2.1-2.1-4.8,0-1.6,2.1-2.4,2.1-2.4.4-3.3-3.7-8.2-3.7-8.2,0,0-.5-2.8-.8-5.7-.6-5.9,1.2-12.1,1.2-12.1,0,0,.7-.2,1.2-.3,0,0,.2.2-.2,1.2-.3.6-2,6.1.4,13.4,2.1,6.5,7.8,9.8,7.8,13.4l-1.5-.1c-3.3,3.3-3.2,19.4-3.9,20.9-.5,0-1.2.3-1.5,0-1.6-1.1-2.5-2.4-3.4-3-.2-.2-.8-.7-1-.6-.4,0-1.9,1.3-2.3,1.5-4.5,2.4-4.7,9.2-3.4,13.1.2,0,1.4-1.7,1.7-2.1,0,0,.9,9.4,4.3,10.3l.4-.6s.2-6.1,1.4-5.6c.1.1,1.1,3,2,3.9,1.8,1.6,1.3,1.5,3,2.3,1.8.4,2.8.9,2.8.9,0-.1-.1-.5-.3-1.1.2-.6-1.2-1.9-.5-3.7,0,0,3.9-5.7,4-6.8,1.6,1,3.6,1.2,3.6,1.2l.6-1.2s-1.1-1.6-.4-2.4c1-1.1,2.2-3.6,3.2-6.7.1-.4-.1-1,.1-1.4.5-1.5,1.2-2.9,1.5-4.5.1-.5.8-1.3.9-1.8.1-.4-.1-1.3,0-1.7.8-4.2,1-7.6.2-8.1,1-.2,1.6-.8,1.6-.8,0,0-1.2-.2-1.2-1.5s2.1-2.8.2-6.5c-1.3.9-1.6.9-2.6.9-1.8,0-3.5-6.5-4-8.8l.4-.4c.7.4,1.8.9,3.3.9,2.3,0,5.4-.9,5.4-8,0-4.1-2.4-13.1-2.4-13.1,3.9-2.1,2.3-12.4,1.9-13.7-.5-1.3-3-10.1-.8-16.3-3.1,1.7-5.4,12.5-5.4,12.5-1.2-5.3,4-10.6,4.3-19.4.2-5.1-3.8-9.2-3.8-9.2,0,0,.7-2.6,2.1-2.6s1,4.5,1,4.5c2.1-.8,3.1-2.6,3.1-5.1s-1.6-5.6-6.1-5.6-6.7,4.6-6.7,8.2,2.6,10,2.6,10c0,0-1.5,5.4-1.7,8.1-.3,4.7-.5,10.2,1.4,17.3,2.4,7.2,6.3,17,6.3,23.9,0,1.8-.8,2.5-.8,2.5-2.3-.7-5.7-15.5-7-28.3-.8-4.9-1.6-10.7-1.7-14.1l-.6-4.8,1.1.3c.1-.2.1-.3.2-.5-.2-1.5-.8-5.6-.8-7.6,0-2.6.3-14.6,1.1-18,1.1,1.8,6.3,2.1,6.3,2.1-3.1-6.3-1.4-13.6-1.6-14.4,2.9.6,4.4-1.4,5.1-1.6-3.3-2.1-2.9-5.8-3.4-6.1,0,0,1.6-.7,2.4-1.5.5-.5,1.6-3.3,1.6-4.8,0-1.6-.4-3.8-1.5-4.2.9-.8,1.4-1.9,1.4-3.4,1.5-1.4,1.8-6.1,2.1-6.7-1.1,1.1-5.6,5-10.4,5-1.8,0-2.4-.3-3.9-.3-3.4,0-5.3,2.3-5.3,2.3-3.5,0-7.1,1.2-7.1,1.2,0,1.1,0,8.3,2.1,12Z"/>
      <path class="cls-3" d="M89.3,20.4s1-1,.3-1c-1.3,0-1.7-1.8-.8-1.6,1,.1,1-.1.2-.8-.6-.6,0-1.1,1.3-1.1.8,0,1.8.5,1.8,1.7s-4.2,5.8-2.6,10.6c1.9,6,7.1,5.3,9.8,5.8,1.7.3,5.2,1.4,5.1,1-.4-.7-5-1.5-4.2-1.7.2,0,4.6,1,4.5.8-.5-.6-3.5-1.8-4-2-1.5-.6-6-2.3-6.5-2.1s5.3,2,5.2,2.4c-.1.3-.9.4-3-.3-2.4-.7-4.7-2.8-4.7-5.7,0-2.6.3-3,.5-3.9.6-4.3.6,3.3.9,2.8.3-.4.5-1.8.8-2.8.5-1.3,1.2-1.7,1.2-3.5,0-3.3-3.1-4.3-4.7-4.3-1,0-3.6.6-3.4,3.2.1,2.6,2.3,2.5,2.3,2.5ZM87.1,34.4c0,.1-1.4.7-1.6.1-.1-.2.8-.6.8-.9.1-.8-.2-1.7-.3-1.6-.9,1.3-2.4.5-2.5,5.4.7-2.3,3.6-1.4,4.1-2,.4-.5-.4-4.7-.9-5.7,0,.7.6,4.3.4,4.7ZM99.7,30.6c1.9.2,3.6.8,3.7.3-.4-1.2-.9-1.4-1.5-1.5-1.4-.3-1.3,1-2.2,1.2ZM75.8,37.2c-.4-1-2.2-2.2-2.2-3-.8,5.7,2.6,7.7,2.2,8.3-.6,1-2.5-1.9-2.5-1.9-1.1,4.4,2.9,7.8,2.9,7.8-.2,1.5-2.6-.8-2.6-.8-1.3,3.8,3.2,7.8,3.2,7.8,0,.9-3.2-1.4-3.2-1.4,0,4.3,3,6.5,3,7.1,0,1.1-1.6-.2-1.6-.2,0,0,.2,3.5,3.8,6.2-.1.8-2.3-.5-2.3-.5.4.8.5,4.4,2,4.7s3,.1,3.5.5,1.7,2,2.1.2c-1.5-1.6-3.1-4.1-3.1-8,0-4.3.8-6.7,3.8-8.9-.5-3.1-1.1-8.5-1.7-11.1-.7-2.6-.6-4.9-.4-10.8,0-1.8,3.9-4.2,3.9-4.2-1.5-4.3-5-7.1-6.5-8,1.5,1.6,3.2,3.1,5.2,6.5,0,0-1.2,1.6-1.7,1.2-.9-.9.9-1.3-.2-2.7-1-1.3-5.9-6.1-5.9-6,.1.8,3.6,5.6,2.4,7.1,0,0,1.8,1.8,2,2.8-.4.6-.9,9-1.1,10-.6-3.1,0-10.6,0-10.6-2.7-2.7-2.5-2.1-5-3.4-.3-.1,3.5,3.1,3.2,3s-.2,6.6-.9,4.7c-.2-.6-.8-4.8-.8-4.8-1.8-2.1-4.8-4.3-4.8-4.5-.1,1.7,3.1,5.9,4.1,12.5-.1.5-.3,1.4-.8.4ZM86.5,52.4c0,.7,2.4,1.6,9.5-2.3,7.1-3.9,9-9.6,8.8-9.8-.1-.1-1.3,2.1-2.7,3.7-1.5,1.7-3.2,2.8-3.4,2.7-.1-.1,1.5-1.6,2.7-3.2,1.1-1.5,1.8-3.2,1.6-3.4-.3-.2-4,6.1-8.9,6.1-3,0-5.2-3.7-3.1-6.5-.4-.4-4.2.8-4.2,6.3,0,3.4,2.3,3.1,2.3,3.8-1.3.5-2.6,1.9-2.6,2.6ZM98.6,26c.6,3.2,6.7.1,7.1,6.9.2,3.4-2.8,4.9-5.3,4.9-2.1-.1-2.5-.5-2.5-.5,0,0-.6,1.1-2,2.4-1,.9-1.5,1.8-1.5,1.8,0,0,.4.5,2.5.1,3.1-.6,4.6-2.7,7.8-2.7,1,0,1.1,1.6,2,1.6-.1-.5.6-1.5,1-2s.9-1.6-.2-2.3c.2-.9,1.4-.7,1.5-1.3,0,0-2.9-2.2-2.9-5.7,0-.8.7-1.2,1-1.2s.9.1.9.6c0,.6-.8.7-.8,2.1,0,2.7,3.2,3.6,3.2,4.4s-1.5,1-1.5,1l-.1,4.5c-1.4,4.1-4.2,8-5.4,8.9.6-.5,3.5-6.6,3.2-6.9-.3-.2-2.8,5.1-5,6.3.4-.3,4.3-6.7,3.9-7-.2-.2-2.8,4.2-6.7,7.5-3.2,2.6-7.5,4.1-11.2,4.7,1.7,2.2,6.1,1,6.1,1.8,0,1.1-1.8,2.3-1.8,5,0,4.2,1.9,8.4-.2,12,7.4-4.4,8.4-10.8,8.8-11.8,0,0-2.5,1.5-6,1.5-1.1,0-1.8-.6-1.8-.9,5.8-3.8,11.5-10.8,11.9-11.6.6-.2,2.4-3.4,3.6-6,1.3-2.6,2.2-3.7,2-3.2s-1.4,5.7-5.9,11.5c-3.1,4.1-9,8.8-9,8.8,0,0,4.2.2,6-1.7.5-.1.9.1.9.5s-.9.5-.9,1.8c.1,7.1,7.6,12.7,8.7,13,0,0-1.2-3.2-1.2-7.3,0-3.7.8-12.6,1.6-17.7.2-1.1-.6-2.2-.4-2.8s.2-.4.5-.4c.7,0,.6,3.5,5,4.3-2.3-5.8-.8-12.2-.8-12.5,0-1-.8-1.4-.5-2.3,0,0,1.2.7,2.7.7s2-.5,2-.5c-2.5-2.4-2.5-4.9-2.5-5.3s-.7-.9-.7-1.3.2-.4.2-.4c.8.5,1.9-.5,2.7-.4,0-.9,1.4-1.7,1.6-4.8.2-3.1-1.1-3.5-2.2-3.5-.8,0-1.3.4-1.7-.1.6-.5,3.8-1,3.8-3.6-2,1.8-5,1.1-7,1.9,0,0-.4-.1-.4-.5,1.8-1.5,7.7.6,8.8-5.2-1.4,1.1-4.9,3.2-8.1,3.2-1,0-2.6-.3-4.1-.3-2.9,0-4.3,1.4-4.6,2.2,0,0-3.9,0-6.1.7.5,1.1-.4,4.8,0,7.1ZM117.3,21.8c.6,0,1,.3,1.2.1-.2.5-1.9,2.4-3.2,2.4-.3,0-.4-.2-.4-.2.2-.8,1.8-2.3,2.4-2.3ZM116.8,24.2c.4.2,1.2,0,.9.6s-.8,1.5-.8,1.5c0,0,.3.3.5.2.1-.1,1.1.2,1.4,0-.2.5-.5,2.5-2.7,2.5-1.3,0-1.5-1.2-1.5-1.6-.1-1.3,2.2-2.9,2.2-3.2ZM106.8,19.3c2.8,0,3.6,4.2,6.2,3.5-.5,1-2,.5-2.5.8-.6.3-1.3,1.1-2.8,1.1-1.6,0-2.3-.7-3.8-.7-.8,0-1.5.5-1.5.5,0,0,.1-1.1,1.6-1.1s2.2.3,3.7.3,2.3-.9,2.3-.9c-1.1-.2-2-2.7-3.2-2.7-.7,0-1.4.7-1.4.7.2.2,1-.3,1.4-.3,1.3,0,1.2,2.2,1.4,2.2-.5.1-.6.3-1.7.3s-2.2-.6-2.4-.5c.2-.2.1-.5.6-.5s1,.2,1-.2-.8-.4-.7-.7c-.4.3-1.1,1.4-1.7,1.4s-.6-.3-.6-.3c.8.1,1.8-2.9,4.1-2.9ZM101,20.1c.1-.4.7-.2.8-.4.2,1-1.2,1.6-1.5,1.9-.3.4-.2.9-.7.9s-.4-.3-.4-.5.3-.6.3-1c0-.3-.3-.5-.3-.5.4-.3,1.6-.3,1.8-.4ZM102.4,36.4c-.9-.2-1.3-.7-2.1-.7s-1.3.7-1.7.7c1.6.3,2.4,1.1,3.8,0ZM73.7,103.7c.2-.1,1.7-4.5,1.8-4.7,0,0,.2-.4.6-1,.3-1.2.3-.8.7-2.6-1.8.5-4.3-1.1-4.3-1.1-.6.3,2.7,2,2.3,2.4-2.7,3-1.1,7-1.1,7ZM73.7,103.7c.2-.1,1.7-4.5,1.8-4.7,0,0,.2-.4.6-1,.3-1.2.3-.8.7-2.6-1.8.5-4.3-1.1-4.3-1.1-.6.3,2.7,2,2.3,2.4-2.7,3-1.1,7-1.1,7ZM98.6,168.8c-.5-.5-1-1.9-1.3-2s-2.7,3.7-1.6,8.4c.1.4.2-1.7.3-2.3.5-2.5,1.1-3.1,2.6-4.1ZM93.6,166.1c.9-1.1,3.3-3.5,4.2-4.3l-2.1.9c-.6.7-1.7,1.9-2.1,3.4ZM102.9,175.2c-.5-.4-1.8-1.6-1.8-1.6,0,0,.4,5.5,2.5,6.8-.5-1-1.2-3.1-.7-5.2ZM76.7,99.4c-.9,2.9-2.1,6-4.2,7.6,0,0,.8.1,1.1.2.6-.5,2.3-3.5,2.9-4.1-.2.8-1.6,4.2-2.2,4.9.1,1.4,1.4,6.1,2.3,8,0-1.6.5-4.2,1.1-4.4-1.1-1.1-1.3-3.2-2-3.4.9-2,2.5-6.4,2.5-7.5s.9-4.1,1.2-3.8-1.2,8.1-2,9.9l.9.5s.9-3.6,2-5.9c.3,1.9-1.1,6.3-1.1,6.3,1.2,2.6,2.9,4,4.2,4.1-1.9-3.2,1.2-7.3.2-9.7.4-1.1,1.7.8,2,1.9.2,1,.2,1.4.2,1.4,0,0,1-1.7,1-4.1s-.8-3.5-.8-4.4c1,0,1.8,1.8,1.8,2.8,0,.8,2.4.4,3-3.4.3-2.2-2.3-3.8-2.3-3.8,0,0,3.7.5,3.6,2.5.8-.7,2-2.5.3-5s-1.6-2.7-.3-2.1c1.3.6,2,2.1,2,2.9.5.4,1.5-1.7,1.1-3.8-.5-2.2-2-3.9-2-3.9,1.1-1.3,2,1.4,2.9,1.6-.2-2.8,3.8-4.7,3.8-4.7.6-1.1,1.1-3.9,2-5.3,1.2-1.7,2.8-1.8,2.8-1.1-2.6.4-2.7,4.6-3.1,5.4.5-.1,1.9.4.9.9s-2.8.7-3.2,2.2c2.1-.4,3.7-1.2,3.8.1-2,1.2-4.3.6-4.3,2.1,0,.6,1.7,1.1,1.7,1.1,0,0,3.3,4.2,3.3,9.4,0,6-1.5,6.6-1.5,7.5s2.7,2.7,2.4,4.7c1.6-3.2.6-8.3,1.4-8.9,2.7,7.2-4.4,17.5-4.4,22.2,0,15.4,9.1,14.2,9.1,24.3,0,1.6-.8,2.8-.8,2.8-1,0,.5-3.4-1.4-3.5-2.9,3.8-2.4,16-3.6,20.5-1.1.1-1.9.1-2.5,0-1.2-.8-2.8-2.1-3.6-2.7-.9.8,2,2.8,1.5,2.8-.2,0-2.4-1.6-2.7-1.5-1.3.7-2.2,1.4-3.3,3.3s-1.5,3.8-1.4,5.7c.4,0,2.1-5.6,4.1-6.9h.6l1.6.1h0c.2,0,1,.1,1.9.1l3.1.1v.5c-1.4-.4-5.2.3-6.2.3.2.6,1,1.5,1.2,1.8.9,0,3.6-.6,5.2-1-.2,1.3-5.1,1.8-5.1,1.8-4.2,2.5-1.8,11.4-1.8,11.4,0,0,.5-1.4.7-2.2.2-.6.3-2.6,1-3.2.8-.6,1.4-2.2,1.1-3,6.3-3.8,6.1-6.9,6.9-6.6,0,2.8-6,7.3-6,7.3l1.6,1.3s2.7-3.4,3.1-3.4c.2,0-.5.8-1,1.6-.7,1-.9,1.4-1.7,2.4.3,1.5.3,5.8,3,7-.2-.4-.3-2.8-.1-4.7,1-1.8,2.1-2.4,2.5-3.7.8-1.7,2.1-4,2.1-4,1,1.8,2.9,2.6,2.9,2.6,0,0-1-2.3.6-3.7s-2.8-4.9-2.8-4.9c0,0,1.6-.8,2.5.4.9,1.1,1.1,2.1,1.5,2.3s-.1-2,.7-2.8-.5-3.9-2.8-4.3c1.2-1.4,3.2.8,4.1.8.1-.9,1.4-2.3.4-3.5-1-1.1-2.5-2.7-2.5-2.7,1.7-.8,2.6,1.1,3.7.9,0-1.1,1.1-2.2-.4-3.6s-2.1-1.7-2.1-1.7c0,0,1.9-.2,3.5.9-.4-1.9.1-3.2-1-4.3-.8-1-2-1-2-1,.2-1.7,2-.2,2.8-.5-1-1.3,1.3-3.6.6-5.6-5.6,2.6-6.5-7.8-7.4-8.3.2-4.1-2.1-16-2.3-18.8-.2-3.2.2-4.7.5-2.4.1.9,1,4.1,1.4,7.8.6,5.2.8,11.1,5.1,11.1s4.5-4.7,4.5-6.9-2.4-11.8-2.4-13.3c2.1-1.9,2.6-5.3,2.6-8.1-.5.7-2.9,3.7-2.9,4.5-.9-1.5,2.6-4.5,2.5-6.4s-.8-3.8-.8-3.8c-.1.5-.9,2.6-1.4,4.3-.3,1.2-.4,2.3-.6,2.3-.6,0-.2-2.3.1-3.3.2-.6,1.6-3,1.6-5.3,0-7.2-1.5-5-.4-9.2-1.7,2.6-3.2,8.1-3.2,13.8-.3-.7-.5.8-.8.1-.6-1.9-.9-5.9-.9-8.5,0-2.4,4.1-10.4,4.1-16.7s-4.9-9-5.1-11.5,1.9-3.6,1.9-3.6c-1.7,2.1-.1,4.4-.1,4.4,1.1-2.9,5-4.2,5,.8,1.4-1.2,1.4-6.7-4.1-6.7-4.3,0-5.2,5.1-5.2,7.1,0,5.6,5.1,11.9,5.1,15.2,0,3.8-2,7.1-2,8.1-.1-1.9,1.3-7.1,1.2-8.6-1,1-1.5,5-2,5.9-.1-1.7.7-7.4,1.1-8.4-.8,1.4-2.4,5.6-2.3,6.9-.2-.9,1.1-6.9,1.3-8.7-.7,2-2.2,6.7-2.2,13.9,0,9.8,8.3,24.6,8.3,34.6,0,3.2-1.4,4.1-2.2,4.1-6.2,0-10.6-49.5-10.6-49.5-3.3-2.7-7.4-9.5-7.4-9.5l-.7-.3s-2.2,4-5,6.4c-1.3,1.1-3.8,2.3-5.4,3.3s-2.3,1.9-2.3,1.9l-1.2-.4s2.1-2.2,3.2-3,2-3.1,2-5.1-.8-4.9-.8-6.9c0-2.7,1.3-4.9.8-5-1.5-.5-3.8-1.3-4.9-1.8-.8,2-2.3,1.8-3,3.3-.9,1.9-1.1,4.6-1.1,7,0,3.6,1.5,4.7,2.2,4.7.4-.8.6-3.5,1.5-5.9.8-2.2,2.3-3.7,2.5-4.3.5.8-1.2,2.5-1.7,6-.8,4.8-4.9,14.4-6.1,18.6-.8,4.8-3.1,13.6-3.8,15.2ZM90.8,147.8c4.9,0,5.3-2,5.9-2,.5,0,.7.4.7.7s-1.4.8-1.5,1.5c3.8.7,5-1,6.5-.9,0-1.6-2.2-2.2-2.2-3.5,0-2.1,1.9-3.2,1.9-3.2,0-5.9-4.4-2.5-4.4-14.9,0-4.8.7-9,1.7-9.5-3.2.4-2.3,10.9-2.3,10.9,0,0-.2,1.1-.7.9-.5-.2.2-1.1-1-1.1-.9,0,.3-1.1.8-.8.5.2.1-1.4-.4-1.4-.8,0-1.2-1.2,0-1.2.9,0,.5-1,.1-1.3-.5-.3-1.6-.8-.2-1.3,0,0,.5-.8-.2-1s-.1-.8-.2-1.5c.8.4,1.3.4,1.3-.8-.1-1.8,4.4-5,5.8-3.6.7-.8-.1-1.1-.1-2.2s.8-3,.8-3c1,0-.5,3,.5,3,.1-1.1,1-3,.5-3.7s-.3-1-.9-2.4c-.5-1.2-1.6-1.4-1.6-1.4-1.2.4-5,1.8-10.4-1.5,0,0-.6-.2-1,.9-.5,1.6-.8,5.4-.8,13.3,0,12.2,4.7,18.2,4.7,19.1s-2-1.2-3.9-1.2c-5.2,0-8.4-.2-11.7-5.3l-1.3.2,3,3.3c-1.1,0-3.6-2.8-3.6-2.8,0,0-5.3,2.9-5.3,4.7,0,1.7.6-.7,2.1-.6,1.7.1,3.8-1.7,4.3-1.4.2.1,1.1,1.4,2.8,2.1,2.9,1.2,7.7,2.1,7.1,2.3-1.8.4-10.5-1.8-11.6-2.2l-2.6,1.4c.7.2,6.3,1.6,5.9,1.7-1.8.3-6.4-1.4-6.6-1.1,0,5.4,1,7.1,1,7.1.4-2.7.6-4.8,1.4-4.7,1.9.2,5.9.3,5.9,1.8,0,1.3-4,1.4-3.9,2.4,1.1.2,4.4.7,5.1.3s2.3-1.1,2.3-.5c0,1.2-2.6,1.3-2.6,1.3,0,0,1.1.9,3,.9,2,0,2-1.1,2-1.1,3,0-1,1.4-1.1,1.8.9.2,4,.5,4.6.1.6-.5,2.1-1.4,2.4-.9.3.6-1.5,1.7-2,2.3ZM81.7,128.6c-1.1.8-1.7-1-3.6-.2,1.8.5,2.4,1.9,3.7,2.5-.3-1.2,1.1-2.6,1.1-2.6,0,0-.6-2.5-4.5-1.2,1.7.3,3-.4,3.3,1.5ZM72.5,131.8c2.5-3,4.8-3.3,4.8-3.3-.1-.2-.1-1.1-1.6-.5-1.1.5-2.1,1.5-3.2,3.8ZM79.7,110.2c-.4-1-.8-1.8-1.6-1.8s-1.1.1-1.1.1c1,1.6,2.7,3.6,2.7,3.6,0,0,2.2.2,3.5.6-1.4-.8-3.1-1.5-3.5-2.5ZM73.6,96.4l-1.4-1.1s-.7,2,.4,5c.3-2.9,0-2.9,1-3.9ZM73.6,108.4s-.9-.2-1.3-.5c-.1,1.3.9,5.1,3,7.4-1.8-4-1.7-5.4-1.7-6.9Z"/>
    </g>
  </g>
</svg>